<?xml version="1.0" standalone="no"?>
<!DOCTYPE svg PUBLIC "-//W3C//DTD SVG 20010904//EN"
 "http://www.w3.org/TR/2001/REC-SVG-20010904/DTD/svg10.dtd">
<svg version="1.0" xmlns="http://www.w3.org/2000/svg"
 width="300.000000pt" height="292.000000pt" viewBox="0 0 300.000000 292.000000"
 preserveAspectRatio="xMidYMid meet">
<metadata>
Created by potrace 1.10, written by Peter Selinger 2001-2011
</metadata>
<g transform="translate(0.000000,292.000000) scale(0.100000,-0.100000)"
fill="#000000" stroke="none">
<path d="M2143 2630 c-39 -23 -53 -48 -53 -94 0 -19 -5 -38 -10 -41 -11 -7 -3
-53 13 -72 5 -7 18 -13 28 -13 11 0 19 -5 19 -11 0 -6 -7 -9 -15 -5 -13 4 -14
2 -5 -14 8 -15 7 -25 -3 -41 -24 -33 -78 -68 -116 -75 -68 -11 -100 -25 -126
-56 -22 -26 -25 -38 -24 -96 1 -37 -3 -87 -9 -112 -6 -25 -15 -65 -21 -90 -6
-28 -19 -52 -35 -65 -34 -27 -63 -95 -76 -180 -13 -82 -28 -135 -40 -135 -4 0
-33 -21 -64 -47 -44 -37 -53 -50 -44 -60 6 -8 17 -12 25 -9 19 7 16 -7 -8 -48
-22 -37 -19 -59 7 -49 12 4 14 0 8 -21 -4 -19 -2 -26 8 -26 26 0 68 47 68 76
0 32 -5 28 -28 -17 -10 -18 -23 -35 -31 -37 -10 -3 -6 11 12 42 27 48 20 65
-9 21 -26 -40 -36 -29 -14 15 28 56 27 72 -7 65 -27 -6 -27 -6 -8 9 124 93
117 82 149 249 13 67 51 156 62 145 2 -2 -7 -31 -21 -63 -13 -33 -31 -102 -39
-154 -8 -52 -20 -97 -26 -101 -7 -5 -6 -11 5 -20 11 -10 15 -34 15 -106 0 -56
-4 -94 -10 -94 -5 0 -10 -7 -10 -15 0 -20 16 -19 24 2 4 10 10 63 13 118 l5
100 79 122 c65 100 79 129 79 162 0 22 5 43 11 47 6 3 20 27 31 51 15 35 18
56 13 94 -5 34 -3 49 5 49 6 0 9 -4 6 -9 -3 -5 6 -46 19 -92 28 -94 30 -131 9
-244 -42 -236 -51 -369 -46 -680 3 -129 1 -145 -22 -208 -30 -79 -33 -141 -9
-238 22 -92 8 -181 -34 -215 -23 -18 -25 -24 -14 -37 7 -9 22 -35 34 -59 17
-34 28 -44 51 -46 16 -2 33 1 39 7 17 17 36 123 26 143 -21 39 -8 99 43 207
30 62 30 67 24 162 -6 88 -5 102 14 140 14 27 25 76 32 143 7 68 17 114 31
141 17 32 22 60 23 133 3 122 14 133 14 13 0 -74 5 -103 24 -149 14 -35 26
-89 30 -141 4 -49 15 -104 26 -129 17 -37 20 -63 18 -156 -3 -106 -2 -113 26
-160 35 -61 57 -148 46 -187 -10 -34 -1 -139 13 -156 14 -19 62 -16 79 5 17
20 62 112 57 116 -2 2 -14 9 -26 15 -14 7 -23 21 -23 36 0 13 -4 36 -10 50 -7
19 -6 47 5 98 23 111 20 202 -11 283 -25 67 -26 74 -20 224 9 201 8 259 -4
350 -33 256 -43 329 -53 366 -9 34 -6 57 16 145 15 58 28 114 29 124 0 11 4
-17 7 -62 5 -63 11 -87 28 -105 11 -13 23 -43 26 -70 5 -35 22 -71 67 -139 85
-129 87 -132 95 -244 4 -55 12 -109 18 -120 10 -19 11 -19 22 9 l12 29 11 -32
c12 -33 42 -43 42 -14 0 13 3 14 12 5 7 -7 21 -12 31 -12 16 0 18 5 13 26 -5
17 -3 23 4 19 18 -11 21 20 5 51 -16 31 -20 55 -7 53 37 -6 44 24 10 42 -47
25 -108 84 -117 114 -5 16 -15 63 -21 103 -12 81 -35 135 -74 171 -14 14 -26
35 -26 48 0 13 -7 37 -15 54 -10 18 -18 71 -22 132 -4 62 -12 111 -20 124 -15
22 -58 41 -145 63 -64 17 -112 67 -103 108 3 16 15 38 26 48 20 18 26 68 9 79
-6 3 -7 17 -4 30 8 33 -20 80 -60 99 -45 21 -74 20 -113 -4z m133 -35 c21 -21
24 -31 18 -61 -5 -25 -3 -39 7 -44 21 -13 -5 -60 -33 -60 -44 0 -49 -12 -47
-101 3 -124 -12 -379 -22 -379 -9 0 -16 235 -11 377 2 73 1 83 -17 92 -11 6
-29 11 -41 11 -23 0 -50 52 -31 58 6 2 11 22 11 45 0 59 29 87 92 87 39 0 54
-5 74 -25z m1 -207 c-3 -7 -5 -2 -5 12 0 14 2 19 5 13 2 -7 2 -19 0 -25z
m-111 -37 c-4 -25 -7 -57 -7 -70 1 -17 -3 -22 -15 -17 -9 3 -29 6 -45 6 l-29
0 40 36 c32 29 40 43 40 71 0 23 4 32 11 27 7 -4 9 -23 5 -53z m88 35 c-8 -20
21 -70 53 -95 l28 -20 -25 -1 c-14 0 -35 -3 -48 -6 -18 -5 -21 -3 -16 10 4 9
1 37 -6 61 -13 45 -8 81 9 70 6 -3 8 -12 5 -19z m-108 -151 c22 -14 23 -22 26
-140 2 -69 0 -125 -4 -125 -18 0 -72 99 -85 156 -8 36 -25 77 -39 93 -13 16
-24 32 -24 36 0 13 101 -3 126 -20z m228 3 c-25 -28 -42 -67 -60 -137 -14 -51
-60 -130 -77 -131 -11 0 -7 233 4 251 11 19 66 37 113 38 l39 1 -19 -22z
m-355 -12 c9 -11 5 -18 -24 -36 -19 -12 -35 -26 -35 -30 0 -15 -61 -80 -74
-80 -19 0 -19 79 0 108 28 43 110 66 133 38z m451 -2 c22 -9 46 -26 52 -37 11
-20 13 -95 4 -105 -8 -7 -59 37 -77 68 -10 16 -33 37 -50 46 -31 16 -32 17
-14 30 24 18 36 18 85 -2z m-412 -84 c12 -33 16 -60 11 -60 -5 0 -27 16 -49
36 l-39 36 27 23 c15 14 28 25 29 25 0 0 10 -27 21 -60z m364 8 c13 -12 16
-26 11 -50 -9 -48 -20 -58 -69 -58 -47 0 -59 16 -20 26 28 7 83 61 73 71 -4 4
-23 -9 -42 -27 -19 -18 -37 -31 -40 -29 -2 3 3 31 12 62 17 63 16 63 75 5z
m-362 -83 c40 -9 28 -25 -18 -25 -51 0 -60 9 -68 60 l-6 45 31 -37 c17 -20 45
-39 61 -43z m-100 16 c0 -17 -11 -43 -26 -60 -28 -34 -73 -150 -74 -191 -1
-48 -17 -55 -25 -11 -11 66 3 116 46 168 22 27 45 65 51 86 13 44 28 49 28 8z
m512 -7 c4 -16 23 -48 43 -71 19 -22 39 -53 45 -68 13 -34 13 -142 0 -150 -6
-4 -10 7 -10 27 0 45 -42 158 -73 199 -29 40 -47 104 -26 97 7 -2 17 -18 21
-34z m-562 -8 c0 -3 -10 -22 -22 -43 -17 -29 -24 -33 -26 -20 -4 20 23 67 38
67 6 0 10 -2 10 -4z m619 -22 c23 -30 30 -64 9 -46 -20 17 -50 72 -39 72 5 0
19 -12 30 -26z m-383 -81 c21 -23 24 -35 20 -73 -3 -25 -8 -82 -12 -128 -3
-45 -9 -84 -14 -87 -11 -7 -66 51 -84 89 -9 19 -16 45 -16 58 0 20 -20 100
-45 176 -5 19 -1 21 47 24 40 2 56 -1 66 -14 8 -9 25 -29 38 -45z m264 29 c-4
-15 -15 -46 -24 -70 -8 -24 -18 -66 -22 -95 -3 -29 -13 -63 -21 -76 -19 -30
-72 -85 -77 -80 -7 7 -26 171 -26 221 0 42 5 56 35 91 34 41 36 42 89 39 53
-4 54 -4 46 -30z m-469 -79 c-10 -38 -55 -92 -67 -81 -3 3 4 24 15 47 12 22
21 48 21 58 0 10 8 30 18 43 l17 25 3 -27 c2 -14 -2 -44 -7 -65z m557 16 c39
-108 39 -108 7 -79 -31 29 -43 54 -50 111 -8 62 16 44 43 -32z m-278 -58 c0
-32 7 -98 15 -146 9 -48 13 -96 10 -106 -9 -29 -41 -42 -66 -28 -23 12 -23 25
0 213 6 49 9 97 6 107 -5 14 -1 19 14 19 19 0 21 -6 21 -59z m460 -213 c11
-80 28 -138 39 -138 4 0 24 -16 44 -35 20 -19 44 -35 52 -35 8 0 15 -5 15 -10
0 -6 -11 -8 -26 -4 -25 7 -26 5 -20 -21 4 -16 16 -41 27 -57 15 -20 17 -28 7
-28 -8 0 -22 14 -33 32 -10 18 -20 27 -22 21 -2 -6 5 -26 16 -44 24 -38 26
-49 10 -49 -6 0 -18 18 -26 40 -17 42 -40 56 -29 18 17 -61 18 -68 8 -68 -11
0 -14 9 -26 63 -4 16 -11 25 -17 21 -6 -3 -8 -11 -6 -18 2 -6 1 -20 -4 -31 -5
-14 -8 -3 -8 35 -1 30 -4 71 -7 91 -4 26 -1 40 10 52 12 12 14 21 7 34 -5 10
-16 59 -25 110 -9 50 -25 115 -36 143 -28 72 -24 75 10 8 18 -35 34 -86 40
-130z m-889 15 c-22 -46 -43 -83 -46 -83 -7 0 -7 2 36 140 l32 105 9 -40 c8
-35 4 -48 -31 -122z m827 85 c52 -182 53 -208 2 -101 -32 67 -52 173 -33 173
6 0 20 -33 31 -72z m-728 29 c0 -23 -20 -64 -67 -140 -73 -115 -108 -148 -48
-44 20 34 44 79 52 100 9 20 20 37 25 37 4 0 8 7 8 15 0 14 21 65 27 65 1 0 3
-15 3 -33z m650 -19 c0 -10 7 -21 15 -24 8 -4 15 -13 15 -21 0 -17 54 -117 78
-145 8 -9 12 -23 10 -29 -2 -7 -26 20 -53 61 -69 107 -95 159 -95 189 1 25 1
25 15 7 8 -11 15 -28 15 -38z m-482 -42 l20 -34 -27 -26 c-15 -14 -29 -26 -32
-26 -3 0 -1 27 5 60 5 33 11 60 12 60 1 0 11 -15 22 -34z m320 -12 c1 -20 4
-45 7 -55 8 -26 1 -24 -29 6 -25 25 -25 26 -9 60 20 41 29 38 31 -11z m-241
-98 c-3 -8 -25 -25 -49 -37 -24 -12 -54 -31 -67 -43 l-24 -21 6 44 c5 36 13
51 49 82 l43 38 24 -24 c14 -14 21 -30 18 -39z m220 22 c27 -28 44 -56 48 -80
7 -36 -6 -54 -18 -25 -2 6 -30 25 -61 40 -41 21 -56 34 -56 49 0 20 26 58 39
58 4 0 25 -19 48 -42z m-162 -132 c9 -63 -9 -53 -26 14 -7 28 -17 50 -22 50
-12 0 0 -66 19 -102 8 -15 14 -43 14 -62 0 -42 -21 -57 -95 -67 -27 -3 -58 -9
-67 -14 -16 -6 -18 1 -18 78 0 100 6 110 95 156 57 29 61 30 76 13 9 -9 20
-39 24 -66z m185 8 l33 -28 -6 -79 c-6 -84 -11 -97 -29 -79 -7 7 -34 12 -60
12 -39 0 -54 5 -73 25 -30 29 -31 58 -5 110 20 40 28 101 11 91 -5 -4 -12 -23
-16 -44 -10 -62 -25 -74 -25 -19 0 34 6 53 20 67 l20 20 49 -24 c26 -14 63
-37 81 -52z m-630 2 c0 -3 -4 -8 -10 -11 -5 -3 -10 -1 -10 4 0 6 5 11 10 11 6
0 10 -2 10 -4z m680 -258 c0 -123 -8 -145 -11 -28 -2 101 0 140 6 140 3 0 5
-50 5 -112z m-440 2 c0 -49 -4 -92 -10 -95 -6 -4 -10 30 -10 95 0 65 4 99 10
95 6 -3 10 -46 10 -95z m189 13 c-4 -43 -13 -94 -22 -113 -17 -39 -22 -32 -31
40 -2 25 -7 61 -11 80 -6 32 -3 36 27 51 18 9 35 17 38 18 3 0 2 -34 -1 -76z
m110 17 c0 -14 -6 -56 -13 -95 l-12 -70 -19 40 c-10 22 -20 73 -23 113 l-4 73
36 -18 c27 -14 35 -24 35 -43z m-219 24 c0 -3 -4 -13 -9 -23 -6 -10 -15 -66
-21 -124 -7 -67 -19 -125 -32 -154 -28 -62 -33 -39 -18 75 7 48 14 114 17 147
3 38 11 65 21 73 16 12 42 16 42 6z m26 -10 c-3 -8 1 -53 9 -98 12 -71 12 -91
0 -142 -8 -32 -14 -74 -15 -91 0 -63 -18 -32 -25 43 -11 113 6 304 27 304 6 0
7 -7 4 -16z m244 -109 c11 -103 6 -214 -9 -242 -13 -24 -44 153 -37 209 4 29
9 77 13 106 3 29 9 50 14 45 4 -4 13 -57 19 -118z m41 112 c11 -8 18 -37 23
-92 3 -44 10 -117 14 -162 4 -46 5 -83 1 -83 -16 0 -49 116 -58 205 -6 55 -13
110 -17 123 -7 25 10 30 37 9z m-260 -337 c-5 -40 -15 -78 -22 -84 -13 -13 -7
57 12 126 16 61 21 38 10 -42z m192 -84 c-11 -17 -21 20 -27 94 l-6 75 19 -80
c10 -44 16 -84 14 -89z m-260 83 c6 -49 -3 -79 -23 -79 -15 0 -21 71 -9 105
16 44 25 37 32 -26z m332 24 c12 -29 13 -43 4 -70 -12 -37 -17 -40 -34 -17 -8
12 -9 31 -1 70 5 30 11 54 13 54 1 0 10 -17 18 -37z m64 -211 c22 -54 28 -158
11 -197 -11 -27 -15 -12 -31 105 -6 52 -18 114 -25 138 -9 32 -9 51 -1 80 l12
37 7 -55 c3 -30 16 -79 27 -108z m-443 113 c3 -19 3 -43 -1 -52 -13 -32 -35
-157 -35 -200 0 -46 -8 -73 -21 -73 -5 0 -9 40 -9 90 0 66 5 103 20 140 11 28
20 69 20 90 0 49 17 52 26 5z m70 -135 c2 -112 0 -137 -17 -175 -11 -25 -23
-45 -27 -45 -4 0 -15 21 -26 46 -18 44 -18 50 -2 147 15 91 49 177 64 163 3
-3 6 -64 8 -136z m326 -28 l20 -105 -22 -43 c-12 -24 -24 -44 -28 -44 -4 0
-16 21 -27 48 -17 40 -19 65 -16 172 1 69 5 129 8 133 12 20 46 -65 65 -161z
m-392 -271 c-5 -20 -10 -82 -10 -139 l0 -103 -27 3 c-20 2 -33 13 -45 37 -9
19 -22 39 -27 44 -15 15 -14 27 3 27 8 0 22 -20 32 -45 16 -44 42 -65 29 -25
-4 12 -1 28 6 36 14 17 6 174 -11 219 -9 23 -7 32 7 47 17 19 18 19 35 -22 15
-34 16 -50 8 -79z m434 64 c-10 -28 -13 -285 -3 -285 5 0 18 20 29 45 11 25
25 45 30 45 13 0 14 1 -15 -58 -20 -41 -30 -52 -49 -52 -29 0 -35 19 -28 89 2
29 -1 84 -7 124 -11 63 -10 77 4 112 16 38 18 38 32 20 8 -12 11 -28 7 -40z
m-484 -155 c0 -40 -4 -70 -10 -70 -11 0 -13 61 -4 109 10 48 14 37 14 -39z
m504 -53 c-3 -9 -10 -15 -15 -12 -11 7 -12 118 -1 129 9 10 23 -92 16 -117z
m-447 1 c-3 -8 -6 -5 -6 6 -1 11 2 17 5 13 3 -3 4 -12 1 -19z m383 12 c0 -5
-4 -10 -10 -10 -5 0 -10 5 -10 10 0 6 5 10 10 10 6 0 10 -4 10 -10z"/>
<path d="M758 2594 c-32 -17 -48 -43 -48 -77 0 -14 -7 -30 -15 -37 -18 -15
-11 -47 16 -73 11 -10 19 -27 19 -38 0 -14 10 -25 30 -32 17 -6 30 -15 30 -20
0 -4 -4 -5 -10 -2 -16 10 -12 -11 11 -60 11 -24 19 -50 17 -57 -6 -16 -58 84
-58 112 0 11 -5 20 -11 20 -6 0 -8 -7 -5 -15 9 -24 -83 -107 -113 -101 -73 12
-141 -46 -141 -121 0 -54 12 -50 17 5 4 38 29 82 51 90 7 2 1 -13 -13 -33 -18
-28 -25 -51 -25 -86 0 -26 -4 -49 -10 -51 -12 -4 -50 -109 -50 -137 0 -11 -16
-36 -35 -57 -33 -35 -60 -100 -80 -194 -9 -41 -71 -130 -90 -130 -15 0 -85
-81 -85 -99 0 -6 7 -11 16 -11 12 0 14 -5 9 -17 -4 -10 -10 -29 -13 -42 -4
-20 -2 -22 17 -16 19 6 21 4 16 -18 -7 -26 7 -43 26 -31 8 5 8 9 -1 14 -14 9
4 90 20 90 13 0 13 -12 0 -46 -13 -32 -4 -64 17 -64 8 0 17 9 20 20 4 15 9 18
18 10 18 -15 31 6 39 60 24 154 36 190 93 253 62 69 76 93 93 156 6 25 23 61
36 80 13 20 24 41 24 48 0 21 16 15 30 -11 15 -29 5 -273 -13 -294 -26 -32
-50 -246 -51 -457 -1 -209 -2 -210 -28 -255 -39 -65 -50 -128 -38 -203 13 -83
13 -173 -2 -200 -6 -12 -12 -45 -13 -73 -2 -41 -9 -62 -35 -98 -18 -25 -31
-48 -29 -50 2 -2 24 -13 48 -25 77 -36 94 -27 105 52 3 27 14 61 25 76 17 24
18 29 4 55 -22 43 -11 96 42 199 l48 91 -7 76 c-5 59 -3 84 9 106 8 16 15 41
15 55 0 14 11 54 25 89 14 35 25 76 25 90 0 15 11 54 25 88 14 34 25 80 25
102 0 33 3 40 20 40 16 0 20 -7 20 -35 0 -19 11 -64 25 -101 14 -36 25 -76 25
-88 0 -11 12 -52 25 -91 14 -38 25 -80 25 -93 0 -12 9 -40 20 -62 18 -34 19
-45 9 -83 -16 -57 -7 -97 41 -191 47 -91 57 -140 40 -190 -10 -31 -9 -41 4
-61 8 -13 19 -43 22 -67 9 -55 21 -78 41 -78 21 0 113 41 113 50 0 4 -9 19
-20 33 -30 37 -52 96 -45 117 3 10 -2 42 -11 71 -15 46 -16 63 -5 160 15 125
11 153 -31 229 l-31 55 -2 215 c-2 214 -19 375 -48 445 -12 30 -15 60 -20 205
-3 68 7 120 22 120 3 0 11 -10 17 -23 6 -12 21 -40 33 -62 11 -22 25 -58 31
-81 6 -26 33 -68 74 -118 68 -81 90 -138 103 -261 6 -58 19 -81 38 -65 9 8 14
5 18 -10 6 -25 34 -26 41 -2 3 9 1 33 -4 52 -12 42 -12 40 0 40 5 0 15 -18 21
-41 10 -33 10 -42 0 -49 -9 -5 -10 -10 -2 -14 18 -12 33 5 28 30 -4 21 -1 24
16 18 17 -5 19 -3 15 17 -3 13 -9 32 -13 42 -5 12 -3 17 9 17 39 0 4 48 -103
144 -29 26 -57 87 -66 145 -10 64 -33 111 -67 143 -21 19 -33 43 -39 73 -5 25
-19 69 -33 97 -13 29 -26 75 -29 101 -3 32 -13 57 -28 74 -14 14 -18 24 -10
21 22 -6 52 -51 61 -89 l8 -34 1 36 c1 43 -28 85 -71 103 -16 7 -58 11 -97 9
-57 -3 -71 0 -85 16 -30 33 -9 42 31 15 37 -25 62 -25 27 0 -53 39 -55 41 -56
88 0 37 5 54 26 78 30 36 31 43 12 78 -8 15 -17 40 -21 55 -12 56 -106 85
-167 51z m133 -33 c16 -16 29 -39 29 -50 0 -12 5 -30 12 -40 6 -10 8 -26 4
-37 -8 -18 -8 -18 -16 1 -6 16 -9 11 -16 -25 -8 -35 -16 -48 -42 -63 -30 -17
-37 -18 -69 -6 -30 12 -39 23 -54 64 -10 28 -18 41 -19 30 -1 -19 -2 -19 -9
-1 -10 27 21 115 48 137 37 30 96 25 132 -10z m2 -253 c-7 -40 -55 -126 -61
-110 -2 7 6 32 17 55 24 49 27 71 9 62 -7 -4 -4 1 6 9 29 24 36 20 29 -16z
m-55 0 c-3 -7 -11 -13 -18 -13 -7 0 -15 6 -17 13 -3 7 4 12 17 12 13 0 20 -5
18 -12z m-3 -28 c18 15 19 7 4 -21 -11 -22 -24 -18 -41 14 -10 20 -10 21 5 8
14 -11 20 -11 32 -1z m-85 -30 c0 -22 -28 -40 -62 -40 -21 1 -21 3 12 30 41
35 50 37 50 10z m28 -53 c4 -19 -15 -22 -38 -7 -13 9 -13 11 0 20 19 13 34 8
38 -13z m127 9 c17 -12 16 -13 -10 -20 -32 -8 -40 -3 -32 19 8 19 18 19 42 1z
m-288 -37 c-23 -19 -37 -39 -37 -53 0 -12 -13 -35 -30 -51 l-30 -29 0 30 c1
62 62 133 115 134 16 0 12 -6 -18 -31z m445 11 c31 -24 58 -79 58 -117 l-1
-28 -29 33 c-17 18 -30 41 -30 51 0 10 -16 33 -35 50 -34 30 -35 31 -12 31 14
0 36 -9 49 -20z m-335 -2 c45 -16 41 -28 -10 -28 -23 0 -59 -9 -80 -19 -53
-27 -44 5 13 43 29 19 34 19 77 4z m289 -23 c42 -40 40 -56 -2 -28 -16 10 -53
20 -84 23 l-55 5 30 17 c45 26 70 22 111 -17z m-172 5 c-4 -8 -8 -55 -9 -105
-3 -63 -7 -90 -16 -90 -8 0 -12 26 -13 90 -1 50 -5 97 -9 106 -7 13 -2 16 23
15 23 -1 29 -5 24 -16z m-54 -93 c0 -66 -2 -75 -22 -86 -18 -9 -36 -9 -82 2
l-59 13 -13 50 c-7 27 -13 49 -14 50 0 1 72 32 90 38 8 2 34 5 58 5 l42 1 0
-73z m211 48 c35 -17 37 -19 32 -59 -3 -22 -10 -46 -14 -52 -16 -20 -116 -35
-144 -22 -23 10 -25 16 -25 86 l0 75 58 -6 c31 -2 73 -13 93 -22z m-414 -89
c-6 -61 -25 -103 -75 -163 -42 -52 -56 -55 -48 -9 17 87 38 136 79 179 23 25
44 45 46 46 2 1 1 -23 -2 -53z m552 -45 c7 -13 21 -52 31 -87 22 -79 9 -93
-36 -39 -46 55 -74 115 -81 176 l-6 52 40 -39 c22 -21 45 -50 52 -63z m-499
-21 c17 -17 28 -35 24 -41 -7 -12 -46 24 -57 51 -3 9 -6 6 -6 -9 -1 -35 -71
-155 -83 -143 -6 6 3 26 26 57 20 25 36 50 36 55 0 14 19 60 24 60 3 0 19 -14
36 -30z m459 -86 c31 -42 38 -64 23 -64 -15 0 -73 108 -78 146 l-5 39 15 -39
c8 -21 28 -58 45 -82z m-69 91 c0 -8 -6 -15 -12 -15 -8 -1 -6 -6 5 -14 16 -13
16 -15 -3 -37 -14 -18 -19 -20 -20 -8 0 8 5 20 12 27 7 7 8 12 2 12 -5 0 -15
-5 -21 -11 -22 -22 -23 10 -1 34 27 29 38 33 38 12z m-331 -4 c21 -13 -5 -24
-29 -11 -11 6 -20 13 -20 15 0 8 34 5 49 -4z m291 4 c0 -2 -9 -9 -20 -15 -24
-13 -50 -2 -29 11 15 9 49 12 49 4z m-190 -35 c0 -28 -22 -50 -49 -50 -18 0
-13 58 7 69 30 18 42 12 42 -19z m90 10 c36 -36 22 -68 -24 -50 -20 7 -26 16
-26 40 0 36 20 40 50 10z m-168 -90 c-2 -49 -8 -90 -13 -90 -10 0 -13 139 -3
164 14 36 19 11 16 -74z m218 62 c8 -36 -1 -153 -11 -146 -6 3 -7 13 -5 22 3
10 2 48 -2 85 -6 46 -5 66 2 64 6 -2 13 -13 16 -25z m-300 -19 c0 -13 -3 -13
-15 -3 -8 7 -15 19 -15 27 0 13 3 13 15 3 8 -7 15 -19 15 -27z m50 18 c0 -6
-4 -13 -10 -16 -6 -4 -5 -13 2 -25 15 -24 4 -37 -17 -20 -17 14 -20 40 -5 40
6 0 10 7 10 15 0 8 5 15 10 15 6 0 10 -4 10 -9z m280 -1 c0 -5 -4 -10 -10 -10
-5 0 -10 5 -10 10 0 6 5 10 10 10 6 0 10 -4 10 -10z m-138 -112 c1 -57 0 -150
-3 -208 -5 -90 -6 -96 -8 -40 -2 36 -5 79 -8 95 -3 17 -4 39 -3 50 0 11 1 62
2 113 0 50 4 92 8 92 5 0 10 -46 12 -102z m158 79 c0 -14 -20 -37 -32 -37 -12
0 -10 24 4 38 16 16 28 15 28 -1z m-190 -41 c0 -33 -15 -45 -57 -46 -20 0 -16
57 5 69 35 21 52 13 52 -23z m98 22 c16 -16 16 -68 0 -68 -43 1 -58 13 -58 46
0 29 4 34 23 34 13 0 28 -5 35 -12z m-226 -35 c19 -17 24 -43 9 -43 -10 0 -26
19 -34 43 -8 21 1 22 25 0z m328 9 c0 -13 -30 -52 -41 -52 -14 0 -11 22 8 42
17 19 33 24 33 10z m-545 -22 c4 -6 11 -8 16 -5 5 4 18 3 29 0 34 -11 22 -47
-20 -60 l-25 -7 24 26 c14 14 22 28 19 31 -12 12 -88 -92 -117 -159 -32 -74
-17 -65 24 14 28 54 54 89 55 73 0 -12 -64 -129 -84 -153 -21 -25 -31 -44 -18
-36 7 4 12 1 12 -8 0 -19 -5 -20 -32 -5 -29 16 -37 1 -9 -20 19 -15 22 -23 16
-49 -9 -42 -21 -41 -29 3 -4 22 -13 35 -22 35 -8 0 -12 -5 -9 -10 3 -6 -6 -15
-22 -21 -15 -5 -38 -22 -50 -37 -11 -15 -25 -24 -29 -19 -9 9 55 77 72 77 19
0 89 111 102 161 6 24 16 63 22 85 10 41 44 94 60 94 5 0 12 -5 15 -10z m774
-14 c13 -14 29 -52 38 -92 24 -106 89 -224 123 -224 9 0 31 -18 49 -40 35 -43
25 -56 -13 -15 -12 13 -35 29 -50 35 -15 5 -24 14 -21 20 3 5 0 10 -8 10 -9 0
-17 -14 -21 -35 -9 -44 -22 -45 -29 -2 -4 24 -1 35 14 46 10 7 19 17 19 22 0
11 -23 7 -31 -5 -8 -10 -29 1 -29 15 0 6 5 7 12 3 13 -8 5 7 -27 51 -28 39
-75 125 -75 137 0 20 20 -6 58 -75 22 -40 47 -79 55 -86 24 -19 -77 165 -112
204 -34 39 -38 50 -16 42 8 -4 17 -2 20 3 9 15 20 12 44 -14z m-70 -28 l25
-30 -25 7 c-29 9 -25 5 -33 33 -10 31 4 27 33 -10z m-459 -34 c0 -8 -3 -14 -7
-14 -17 1 -43 28 -43 44 0 15 2 15 25 0 14 -9 25 -23 25 -30z m290 17 c-10
-20 -39 -35 -48 -26 -8 8 40 55 49 49 5 -3 5 -13 -1 -23z m-192 -8 c-2 -23 -8
-29 -36 -31 -22 -2 -34 2 -38 12 -9 24 14 46 48 46 26 0 29 -3 26 -27z m120
-6 c3 -27 2 -28 -35 -25 -33 3 -38 6 -41 31 -3 27 -2 28 35 25 33 -3 38 -6 41
-31z m-427 -34 c-11 -21 -32 -51 -46 -68 -23 -27 -25 -27 -14 -5 26 54 61 110
70 110 5 0 1 -17 -10 -37z m692 -18 c34 -69 34 -78 1 -34 -41 55 -57 89 -41
89 7 0 25 -25 40 -55z m-494 -19 c24 -48 24 -49 5 -63 -36 -26 -49 -13 -52 56
-4 77 11 79 47 7z m311 -5 c0 -33 -5 -63 -10 -66 -20 -12 -50 6 -50 30 0 26
37 95 51 95 5 0 9 -27 9 -59z m-270 29 c0 -5 -5 -12 -11 -16 -12 -7 -31 15
-23 28 6 9 34 -1 34 -12z m220 13 c0 -5 -5 -15 -10 -23 -7 -12 -12 -12 -22 -2
-10 10 -10 15 2 22 18 12 30 13 30 3z m-157 -27 c10 -25 10 -236 1 -237 -5 0
-24 48 -43 107 l-34 107 24 18 c29 22 45 24 52 5z m105 -2 c12 -8 22 -21 22
-29 0 -20 -60 -198 -71 -210 -13 -13 -12 212 1 236 13 23 19 24 48 3z m-158
-159 c27 -85 38 -99 87 -102 32 -2 36 1 53 40 10 23 24 63 30 89 12 45 14 47
39 41 36 -8 36 -8 3 -40 -16 -15 -37 -49 -46 -74 -9 -26 -32 -64 -50 -85 l-34
-39 -35 38 c-19 21 -45 66 -57 98 -15 42 -29 64 -46 71 -30 14 -31 25 -1 31
12 2 25 5 28 6 3 0 16 -33 29 -74z m-84 -94 c14 -55 24 -120 24 -160 -1 -72
-21 -163 -37 -168 -27 -9 -53 411 -29 462 9 18 10 17 14 -10 2 -16 14 -72 28
-124z m25 54 c48 -185 58 -247 50 -332 -10 -118 -21 -113 -21 8 0 117 -10 184
-46 309 -26 91 -30 120 -14 104 5 -5 19 -46 31 -89z m345 83 c3 -4 10 -41 15
-83 6 -58 4 -112 -11 -227 -25 -188 -29 -196 -55 -94 -22 83 -18 157 14 279
15 59 25 109 21 112 -10 6 -59 -171 -70 -256 -5 -41 -10 -112 -10 -158 0 -103
-11 -99 -20 6 -7 75 10 197 39 288 5 17 17 55 25 87 15 53 31 67 52 46z m-312
-79 c12 -33 15 -54 9 -60 -7 -7 -14 5 -21 34 -7 24 -14 52 -18 61 -3 9 -2 16
3 16 5 0 17 -23 27 -51z m230 -14 c-10 -37 -19 -53 -24 -45 -11 17 24 119 37
107 2 -3 -3 -31 -13 -62z m-620 -132 l-8 -38 -5 40 c-5 29 -11 41 -26 43 -11
2 -24 8 -29 13 -15 14 -26 11 -26 -8 -1 -22 -23 -53 -38 -53 -22 0 31 81 67
104 l36 23 19 -43 c14 -33 16 -53 10 -81z m1112 44 c17 -32 22 -48 13 -45 -11
4 -26 25 -46 66 0 2 -9 -1 -20 -7 -10 -5 -26 -12 -37 -15 -14 -5 -17 -13 -14
-36 3 -17 1 -30 -3 -30 -15 0 -15 64 0 105 l15 43 32 -16 c21 -9 42 -33 60
-65z m-673 4 c18 -30 21 -96 7 -141 -8 -29 -10 -26 -32 69 -22 92 -9 130 25
72z m143 -55 c-9 -30 -16 -66 -16 -80 0 -39 -17 -31 -24 12 -10 64 -7 93 15
124 32 45 45 15 25 -56z m-620 -8 c-7 -44 -12 -55 -21 -46 -9 9 7 88 18 88 6
0 7 -16 3 -42z m1088 20 c9 -36 7 -73 -3 -62 -14 14 -25 84 -13 84 5 0 12 -10
16 -22z m-784 -45 c0 -25 5 -84 11 -132 11 -83 3 -141 -18 -141 -5 0 -9 75
-11 166 -1 110 1 163 8 159 5 -3 10 -27 10 -52z m478 -108 c-2 -98 -7 -164
-12 -162 -19 6 -26 63 -16 129 5 37 10 86 10 110 0 43 9 88 17 88 2 0 3 -74 1
-165z m-371 -110 c1 -82 -10 -112 -23 -59 -9 37 5 144 19 144 1 0 3 -38 4 -85z
m275 -7 c4 -31 1 -54 -7 -65 -21 -28 -24 -13 -18 72 6 82 16 79 25 -7z m-322
-31 c0 -21 8 -41 20 -52 27 -24 20 -58 -27 -145 -27 -49 -38 -86 -48 -160
l-14 -95 6 161 c4 114 2 163 -6 168 -21 13 -12 65 14 88 14 12 25 29 25 38 0
9 3 20 7 23 14 15 23 5 23 -26z m372 3 c5 -17 19 -35 30 -41 17 -9 19 -17 12
-52 -4 -23 -7 -114 -6 -202 0 -143 -1 -151 -8 -77 -7 65 -17 100 -49 167 -44
90 -50 127 -26 151 8 9 15 31 15 50 0 42 17 44 32 4z m-451 -327 c-2 -182 -7
-243 -21 -243 -5 0 -6 40 -3 89 4 68 2 101 -11 140 -22 67 -20 108 6 158 12
23 24 40 26 38 3 -2 4 -84 3 -182z m528 147 c25 -48 27 -108 5 -170 -12 -35
-15 -65 -10 -132 7 -93 -8 -126 -17 -40 -6 53 -8 382 -3 382 2 0 13 -18 25
-40z m-441 -127 c-5 -55 -43 -162 -54 -151 -6 7 12 126 27 186 16 60 33 38 27
-35z m372 -62 c6 -46 9 -85 6 -88 -6 -6 -42 76 -51 116 -4 17 -3 50 1 74 l7
42 13 -31 c7 -16 18 -68 24 -113z m-498 -119 c-1 -110 -1 -113 20 -106 19 6
20 3 14 -27 -3 -19 -8 -45 -10 -59 -17 -126 -27 -157 -48 -144 -5 3 -4 12 3
20 6 8 9 17 5 21 -3 4 -13 -2 -22 -13 -8 -10 -13 -13 -9 -6 5 9 0 11 -19 8
-35 -6 -35 19 1 56 21 22 27 39 29 80 1 29 6 62 10 73 11 24 12 146 2 235 l-7
65 15 -45 c12 -32 16 -79 16 -158z m597 81 c-10 -79 -10 -108 0 -144 7 -24 13
-67 15 -95 1 -29 9 -61 19 -75 9 -13 25 -35 34 -49 17 -23 17 -24 1 -17 -10 3
-18 2 -18 -3 0 -6 -9 -6 -25 0 -24 9 -45 -3 -25 -15 6 -4 8 -11 4 -16 -9 -15
-34 10 -34 35 1 47 -13 137 -21 142 -5 3 -9 16 -9 30 0 21 4 24 20 19 19 -6
20 -2 20 100 0 95 15 203 27 191 2 -2 -1 -49 -8 -103z m-544 -252 c3 -5 1 -12
-5 -16 -5 -3 -10 1 -10 9 0 18 6 21 15 7z m485 -7 c0 -8 -5 -12 -10 -9 -6 4
-8 11 -5 16 9 14 15 11 15 -7z"/>
<path d="M750 2492 c0 -5 6 -15 14 -21 16 -13 49 -4 43 13 -4 14 -57 21 -57 8z"/>
<path d="M843 2493 c-18 -7 -16 -20 3 -27 17 -6 44 9 44 25 0 10 -27 11 -47 2z"/>
<path d="M796 2431 c-4 -7 -5 -15 -2 -18 9 -9 19 4 14 18 -4 11 -6 11 -12 0z"/>
<path d="M834 2429 c-5 -9 -19 -21 -32 -28 -20 -10 -21 -14 -8 -26 18 -19 40
-19 55 -2 13 17 5 27 -17 20 -14 -4 -14 -2 2 11 10 8 16 21 14 28 -3 9 -7 8
-14 -3z"/>
<path d="M644 960 c3 -14 6 -31 6 -38 0 -7 5 -10 10 -7 14 9 12 28 -6 51 -15
18 -15 18 -10 -6z"/>
<path d="M590 930 c0 -12 40 -34 48 -26 3 4 -3 13 -14 21 -22 17 -34 19 -34 5z"/>
<path d="M987 973 c-4 -3 -7 -20 -6 -37 l1 -31 9 34 c10 33 8 47 -4 34z"/>
<path d="M1016 925 c-23 -17 -13 -34 11 -19 19 12 29 34 16 34 -4 0 -17 -7
-27 -15z"/>
<path d="M1682 1325 c-7 -25 -17 -44 -23 -43 -6 2 -14 -3 -16 -9 -9 -24 28
-13 39 12 6 14 15 25 20 25 4 0 8 14 8 30 0 44 -14 37 -28 -15z"/>
</g>
</svg>
