<?xml version="1.0" standalone="no"?>
<!DOCTYPE svg PUBLIC "-//W3C//DTD SVG 20010904//EN"
 "http://www.w3.org/TR/2001/REC-SVG-20010904/DTD/svg10.dtd">
<svg version="1.0" xmlns="http://www.w3.org/2000/svg"
 width="300.000000pt" height="577.000000pt" viewBox="0 0 300.000000 577.000000"
 preserveAspectRatio="xMidYMid meet">
<metadata>
Created by potrace 1.10, written by Peter Selinger 2001-2011
</metadata>
<g transform="translate(0.000000,577.000000) scale(0.100000,-0.100000)"
fill="#000000" stroke="none">
<path d="M1440 5451 c-61 -14 -85 -28 -123 -70 -40 -44 -47 -82 -23 -114 14
-18 14 -18 21 2 10 32 63 71 97 71 22 0 40 -10 64 -36 19 -19 34 -30 34 -24 0
22 49 60 79 60 33 0 86 -39 97 -72 6 -21 7 -21 20 -3 38 52 -8 134 -99 173
-37 16 -124 23 -167 13z m173 -44 c22 -9 36 -21 32 -27 -4 -6 -2 -9 4 -8 6 2
21 -12 32 -30 17 -26 18 -31 5 -26 -9 4 -14 9 -11 12 7 7 -53 35 -80 37 -21 1
-75 -24 -75 -36 0 -12 -30 -4 -50 14 -20 17 -59 22 -95 13 -11 -2 -24 -5 -28
-5 -5 -1 -5 -7 -1 -13 4 -7 3 -10 -1 -5 -5 4 -17 -1 -28 -10 -19 -17 -20 -17
-8 4 6 12 19 27 29 32 9 6 13 11 7 11 -12 0 31 31 65 46 36 16 158 11 203 -9z"/>
<path d="M1364 5302 c-36 -29 -44 -54 -32 -95 8 -26 8 -47 1 -70 l-10 -33 38
10 c26 7 49 6 75 -2 21 -6 41 -9 46 -6 4 3 8 38 8 79 0 64 -3 77 -26 104 -30
35 -67 40 -100 13z m84 -29 c7 -7 10 -13 6 -13 -5 0 -3 -5 4 -12 14 -14 16
-86 3 -107 -7 -10 -13 -11 -30 -2 -11 6 -32 9 -47 7 -25 -5 -26 -3 -22 29 2
19 0 35 -4 35 -17 0 -7 42 16 65 26 25 47 25 74 -2z"/>
<path d="M1539 5290 c-29 -28 -30 -32 -27 -107 3 -87 -6 -81 89 -67 20 3 46 1
58 -5 24 -13 25 -11 9 23 -8 20 -8 35 1 66 13 45 5 72 -33 102 -31 26 -64 22
-97 -12z m84 -10 c22 -17 24 -26 21 -72 -4 -56 -15 -68 -54 -66 -14 0 -32 -1
-40 -3 -12 -3 -15 8 -14 58 1 63 21 102 45 87 8 -4 9 -3 5 4 -11 19 9 14 37
-8z"/>
<path d="M1263 5248 c-10 -17 -7 -154 5 -193 8 -28 9 -27 32 42 23 70 23 73 6
117 -18 47 -29 56 -43 34z m32 -58 c3 -5 1 -10 -4 -10 -6 0 -11 5 -11 10 0 6
2 10 4 10 3 0 8 -4 11 -10z"/>
<path d="M1706 5238 c-27 -42 -27 -71 -3 -143 l24 -70 13 68 c12 67 7 151 -10
162 -5 3 -16 -5 -24 -17z m11 -80 c-3 -7 -5 -2 -5 12 0 14 2 19 5 13 2 -7 2
-19 0 -25z"/>
<path d="M1204 5095 c-8 -33 0 -61 33 -121 25 -44 28 -47 32 -24 3 26 -16 123
-31 153 -12 24 -27 21 -34 -8z"/>
<path d="M1767 5113 c-14 -23 -38 -133 -35 -159 3 -28 4 -27 36 29 24 43 32
68 30 95 -3 33 -20 53 -31 35z"/>
<path d="M1338 5090 c-42 -26 1 -100 58 -100 58 0 96 59 59 90 -20 17 -96 23
-117 10z m92 -25 c18 -11 10 -35 -15 -47 -19 -8 -28 -8 -40 2 -8 7 -12 16 -9
21 3 5 -2 6 -11 3 -11 -5 -14 -2 -9 9 9 23 55 30 84 12z"/>
<path d="M1553 5085 c-46 -33 -12 -95 50 -95 47 0 97 58 77 90 -13 21 -101 24
-127 5z m93 -18 c11 -11 -7 -45 -28 -50 -43 -12 -78 31 -43 50 17 10 62 10 71
0z"/>
<path d="M1486 5043 c-2 -10 -8 -34 -12 -53 -3 -19 -11 -42 -17 -51 -22 -36
41 -66 83 -39 12 7 12 15 3 42 -6 18 -17 52 -23 76 -11 44 -25 54 -34 25z m25
-87 c10 6 13 -29 3 -39 -14 -14 -31 5 -26 31 3 15 7 21 10 14 2 -6 8 -10 13
-6z"/>
<path d="M1295 5037 c-4 -9 -5 -47 -3 -82 4 -65 23 -105 61 -129 20 -13 37 5
37 40 0 11 14 39 31 62 l31 42 -50 0 c-52 0 -73 14 -90 60 -9 22 -11 23 -17 7z
m85 -121 c-5 -12 -11 -30 -15 -41 -6 -19 -7 -19 -25 5 -11 14 -17 32 -14 42 3
9 0 19 -6 23 -25 15 3 21 34 7 29 -13 33 -19 26 -36z"/>
<path d="M1696 5035 c-20 -45 -48 -65 -93 -65 -24 0 -43 -2 -43 -5 0 -2 11
-21 25 -41 13 -20 27 -51 31 -70 8 -42 25 -43 58 -3 33 39 38 59 34 139 -2 48
-6 60 -12 45z m-11 -84 c-2 -37 -24 -91 -38 -91 -6 0 -7 3 -4 7 4 3 -4 21 -18
39 l-24 32 33 6 c19 4 37 13 40 21 9 23 13 18 11 -14z"/>
<path d="M1428 4863 c-19 -5 -25 -23 -8 -23 6 0 19 -9 30 -20 11 -11 32 -20
47 -20 25 0 93 37 93 51 0 16 -115 25 -162 12z m91 -34 c-15 -9 -32 -2 -24 11
3 5 13 6 21 3 12 -4 13 -8 3 -14z"/>
<path d="M1300 4847 c-1 -21 33 -67 72 -99 61 -50 80 -58 134 -58 40 0 55 6
102 43 52 39 92 89 92 112 -1 6 -10 -2 -21 -17 -15 -20 -29 -28 -53 -28 -19 0
-38 -8 -49 -20 -13 -16 -29 -20 -75 -20 -46 0 -63 4 -77 20 -11 12 -31 20 -51
20 -24 0 -38 7 -53 28 -11 15 -21 23 -21 19z m144 -106 c9 -8 31 -13 49 -12
18 1 39 2 47 3 8 0 22 5 30 11 13 9 13 9 0 -6 -10 -11 -31 -17 -60 -17 -70 0
-79 2 -96 21 -13 15 -13 17 -1 15 8 -1 22 -8 31 -15z"/>
<path d="M1325 4713 c26 -110 90 -250 130 -283 20 -16 20 -17 -14 76 -16 43
-32 99 -36 124 -4 25 -12 54 -17 65 -13 24 -59 75 -69 75 -4 0 -1 -26 6 -57z"/>
<path d="M1642 4736 c-20 -23 -34 -54 -42 -93 -7 -32 -25 -95 -41 -140 -36
-100 -36 -106 -3 -62 38 50 90 158 107 220 34 123 31 134 -21 75z"/>
<path d="M1247 4595 c-26 -52 -47 -99 -47 -104 0 -11 55 -22 75 -15 8 3 17 20
19 37 9 57 13 177 7 177 -4 0 -28 -43 -54 -95z m31 -27 c1 -38 -13 -68 -33
-68 -11 0 -12 6 -4 30 6 17 15 30 20 30 5 0 8 3 8 8 -2 12 1 32 4 32 2 0 4
-14 5 -32z"/>
<path d="M1414 4673 c3 -10 12 -45 20 -78 8 -33 24 -87 36 -119 11 -33 20 -78
20 -102 0 -67 16 -60 23 9 3 34 15 89 27 122 11 33 25 80 31 105 5 25 12 53
15 63 5 16 3 17 -14 8 -12 -6 -44 -11 -72 -11 -28 0 -60 5 -72 11 -17 9 -19 8
-14 -8z m132 -63 c-3 -19 -14 -60 -25 -90 l-19 -55 -12 30 c-7 17 -12 38 -12
48 0 9 -3 15 -8 12 -5 -3 -9 3 -8 12 0 10 -3 32 -7 48 l-7 31 52 -1 51 0 -5
-35z"/>
<path d="M1700 4618 c0 -98 8 -136 30 -143 25 -8 70 4 70 19 0 10 -86 184 -96
195 -2 2 -4 -30 -4 -71z m62 -98 c4 -19 -25 -19 -33 -1 -3 8 -3 26 -1 39 l5
25 13 -25 c7 -13 14 -31 16 -38z"/>
<path d="M1197 4619 c-26 -16 -76 -39 -111 -51 l-64 -22 71 -18 c65 -17 72
-17 89 -2 22 21 70 102 66 113 -2 4 -25 -5 -51 -20z m-23 -63 c-7 -18 -22 -20
-44 -6 -13 8 -12 10 5 11 11 1 23 1 28 0 4 0 7 4 7 11 0 6 2 9 5 6 3 -3 3 -13
-1 -22z"/>
<path d="M1321 4578 c-1 -81 7 -100 50 -113 28 -9 36 2 21 26 -28 45 -55 102
-62 132 -6 24 -8 13 -9 -45z"/>
<path d="M1677 4643 c-4 -3 -7 -14 -7 -24 0 -9 -16 -47 -36 -84 -19 -37 -33
-70 -30 -72 11 -11 68 21 76 43 7 18 12 144 5 144 -1 0 -5 -3 -8 -7z"/>
<path d="M1776 4590 c43 -79 52 -84 115 -66 29 9 64 16 78 17 18 0 8 6 -29 18
-30 10 -83 32 -117 49 -34 18 -65 32 -68 32 -4 0 6 -22 21 -50z m78 -24 c22
-11 24 -15 11 -20 -26 -10 -32 -7 -38 14 -6 24 -6 24 27 6z"/>
<path d="M884 4501 c-133 -60 -184 -242 -129 -460 8 -30 18 -58 23 -63 23 -23
93 91 164 265 37 92 84 146 160 186 37 20 66 41 65 46 -2 6 -24 18 -48 27 -61
24 -182 23 -235 -1z m201 -14 c11 -3 26 -6 33 -6 10 -1 10 -4 0 -15 -7 -8 -15
-14 -18 -14 -21 1 -35 -7 -71 -39 -23 -21 -44 -37 -45 -35 -2 1 -3 1 -2 0 5
-7 -37 -66 -44 -62 -4 3 -9 -1 -9 -8 -1 -7 -2 -17 -3 -23 -2 -18 -39 -110 -49
-122 -5 -7 -7 -13 -3 -13 9 0 -53 -116 -69 -130 -12 -10 -17 -7 -26 16 -13 34
-17 222 -6 278 17 86 64 144 138 172 33 12 132 13 174 1z"/>
<path d="M1881 4502 c-24 -9 -46 -21 -48 -27 -1 -5 27 -25 63 -44 79 -41 129
-99 169 -197 56 -138 83 -191 115 -227 17 -20 36 -37 40 -37 4 0 15 26 23 58
58 208 12 400 -112 464 -45 24 -65 28 -130 27 -46 0 -93 -7 -120 -17z m217
-21 c11 -6 22 -8 24 -5 3 3 24 -16 46 -41 34 -38 52 -77 56 -120 1 -5 5 -15 8
-21 16 -25 -5 -284 -23 -284 -5 0 -26 32 -48 72 -30 54 -37 75 -29 85 8 10 7
12 -4 8 -10 -4 -18 6 -27 35 -6 22 -9 46 -5 53 4 6 4 9 -1 5 -7 -7 -55 54 -55
70 0 15 -65 75 -112 104 -27 17 -47 33 -44 35 21 21 176 24 214 4z"/>
<path d="M1970 4435 c0 -2 6 -8 13 -14 10 -8 14 -7 14 2 0 8 -6 14 -14 14 -7
0 -13 -1 -13 -2z"/>
<path d="M1224 4450 c-66 -10 -168 -64 -197 -104 -32 -45 -31 -170 1 -241 60
-130 193 -193 320 -151 117 39 168 179 128 350 -8 32 -23 70 -34 85 -40 55
-117 76 -218 61z m138 -29 c46 -18 75 -59 87 -124 21 -113 15 -196 -17 -251
-21 -36 -108 -87 -137 -81 -11 3 -40 6 -65 9 -124 11 -220 150 -201 290 7 52
31 93 46 78 4 -4 5 -1 3 7 -4 16 71 63 90 56 6 -2 12 0 12 5 0 5 8 11 18 13
31 8 140 7 164 -2z"/>
<path d="M1640 4445 c-56 -17 -81 -44 -106 -110 -26 -68 -26 -202 -1 -267 44
-114 193 -161 315 -99 56 29 119 104 137 164 19 64 19 160 1 196 -46 89 -232
151 -346 116z m163 -29 c18 -10 25 -11 20 -3 -4 7 5 4 20 -6 15 -9 27 -14 27
-11 0 4 9 -1 20 -11 10 -9 18 -22 17 -27 -1 -6 5 -13 13 -15 13 -4 13 -3 0 6
-13 10 -13 11 0 11 50 -1 74 -133 40 -220 -26 -65 -69 -123 -86 -116 -8 3 -13
0 -11 -6 2 -11 -27 -30 -68 -44 -44 -15 -79 -12 -155 12 -8 3 -16 5 -17 5 -2
-1 -13 9 -25 21 -32 32 -58 111 -58 178 0 72 18 160 32 160 6 0 9 3 5 6 -6 7
33 54 45 54 5 0 6 -5 2 -12 -4 -7 -3 -8 5 -4 6 4 9 11 6 16 -14 22 128 27 168
6z"/>
<path d="M927 4153 c-15 -38 -46 -97 -70 -132 -86 -129 -87 -133 -87 -261 0
-63 5 -132 11 -154 l11 -38 25 23 c65 61 127 177 159 299 30 111 20 330 -14
330 -5 0 -21 -30 -35 -67z m33 -2 c-7 -13 -7 -20 1 -23 13 -4 16 -84 5 -161
-14 -108 -66 -239 -116 -297 -16 -19 -30 -38 -30 -42 0 -16 -19 -7 -20 10 -11
160 -8 226 11 268 12 25 26 41 32 37 5 -3 7 -1 4 4 -4 6 5 23 18 39 14 16 25
35 25 42 0 8 5 10 12 6 8 -5 9 -2 5 9 -3 10 -2 17 3 17 6 0 10 4 10 9 0 14 39
101 45 101 3 0 1 -9 -5 -19z"/>
<path d="M2026 4212 c-2 -4 -10 -36 -16 -71 -29 -159 41 -400 153 -527 24 -27
43 -42 49 -36 14 14 29 190 22 255 -5 40 -17 73 -40 110 -79 126 -101 165
-123 220 -22 54 -34 67 -45 49z m55 -134 c16 -27 29 -53 29 -59 0 -6 5 -7 12
-3 8 5 9 2 5 -9 -3 -9 -2 -19 3 -22 28 -17 74 -102 76 -139 1 -23 3 -45 4 -51
1 -5 2 -39 1 -74 -1 -54 -3 -62 -17 -57 -14 5 -15 4 -4 -9 10 -12 10 -19 2
-27 -9 -9 -12 -8 -12 3 0 8 -9 20 -21 27 -12 8 -18 19 -15 28 4 10 2 12 -6 8
-8 -5 -9 -2 -5 10 4 9 3 15 -1 12 -11 -7 -29 26 -26 47 1 9 -2 15 -7 11 -9 -5
-13 9 -10 35 2 7 -2 10 -7 7 -28 -17 -65 261 -44 329 6 19 6 19 10 1 2 -10 17
-41 33 -68z"/>
<path d="M708 4024 c-8 -18 -13 -71 -13 -144 1 -96 4 -125 24 -173 13 -32 25
-57 27 -55 8 9 10 316 2 348 -14 51 -25 58 -40 24z m22 -121 c0 -31 -3 -54 -6
-50 -9 9 -10 107 -2 107 5 0 8 -25 8 -57z"/>
<path d="M1016 4019 c-13 -67 -7 -99 25 -131 28 -29 34 -30 88 -25 57 5 121
29 121 46 0 5 -17 12 -37 16 -55 10 -114 43 -154 87 l-36 39 -7 -32z m44 -45
c0 3 11 -4 25 -16 13 -11 22 -26 18 -31 -3 -6 -1 -7 4 -4 11 7 89 -20 82 -28
-2 -2 -23 -6 -47 -10 -47 -7 -101 17 -103 45 -1 8 -3 25 -4 38 -2 18 0 20 11
11 8 -6 14 -9 14 -5z"/>
<path d="M1957 4026 c-28 -42 -94 -84 -153 -97 -30 -7 -53 -17 -51 -23 6 -17
88 -45 135 -45 35 -1 49 5 73 28 24 25 29 37 28 78 0 26 -4 56 -8 67 -7 17 -9
16 -24 -8z m8 -63 c-3 -47 -4 -48 -36 -67 -32 -19 -92 -16 -105 6 -5 8 -2 9 9
5 10 -3 17 -3 17 2 0 11 52 35 70 32 8 -2 12 0 8 4 -6 7 21 45 33 45 3 0 5
-12 4 -27z"/>
<path d="M2255 4000 c-14 -43 -15 -63 -6 -129 5 -43 8 -111 5 -152 l-4 -74 24
50 c29 58 49 170 41 223 -13 76 -27 132 -35 132 -5 0 -16 -23 -25 -50z m31
-102 c1 -47 -1 -65 -6 -52 -9 23 -11 138 -2 129 3 -2 6 -37 8 -77z"/>
<path d="M1385 3943 c-69 -21 -112 -56 -125 -101 -12 -46 -13 -122 -1 -122 5
0 47 17 93 39 45 21 95 43 111 49 24 11 27 16 27 62 0 59 -13 90 -38 89 -9 0
-39 -7 -67 -16z m59 -19 c16 -6 21 -41 10 -81 -4 -13 -10 -21 -14 -18 -4 2
-23 -4 -42 -15 -20 -10 -39 -16 -42 -13 -3 4 -12 -1 -19 -10 -6 -9 -24 -19
-38 -22 -27 -7 -29 -1 -21 63 3 23 59 72 98 86 47 17 48 18 68 10z"/>
<path d="M1520 3934 c-25 -64 -9 -120 39 -135 20 -6 66 -27 103 -45 37 -19 72
-34 78 -34 13 0 13 91 -1 127 -17 47 -50 72 -117 93 -82 26 -91 25 -102 -6z
m90 -15 c0 -6 30 -19 55 -23 6 -1 9 -7 8 -14 -2 -6 3 -9 10 -7 16 7 33 -22 42
-73 8 -51 -3 -54 -66 -17 -24 14 -61 30 -82 36 -38 10 -38 10 -36 59 2 48 3
48 36 47 18 -1 33 -5 33 -8z"/>
<path d="M985 3862 c-5 -31 0 -53 26 -110 18 -40 38 -72 45 -72 20 0 26 32 9
50 -20 22 -19 35 5 51 20 14 20 16 -29 67 l-49 52 -7 -38z m62 -69 c0 -17 -12
-16 -27 2 -16 19 -4 39 14 23 7 -7 13 -18 13 -25z"/>
<path d="M1957 3844 c-46 -50 -47 -53 -27 -64 24 -13 25 -27 4 -52 -14 -14
-14 -20 -4 -33 7 -8 16 -15 20 -15 12 0 70 135 69 161 -1 58 -12 58 -62 3z
m33 -26 c0 -7 -5 -20 -10 -28 -7 -12 -12 -12 -22 -2 -9 9 -8 15 8 27 24 18 24
18 24 3z"/>
<path d="M1200 3858 c-14 -6 -50 -13 -80 -17 l-55 -6 36 -22 c23 -14 52 -23
78 -23 35 0 43 4 51 26 12 30 13 54 3 53 -5 0 -19 -5 -33 -11z m-5 -38 c-3 -5
-11 -10 -16 -10 -6 0 -7 5 -4 10 3 6 11 10 16 10 6 0 7 -4 4 -10z"/>
<path d="M1764 3844 c4 -16 12 -35 18 -41 16 -19 79 -15 116 7 38 23 42 39 7
32 -23 -4 -87 8 -130 24 -16 6 -17 3 -11 -22z m62 -32 c-4 -3 -14 2 -24 12
-16 18 -16 18 6 6 13 -6 21 -14 18 -18z"/>
<path d="M1085 3766 c-19 -13 -19 -15 -2 -33 22 -25 98 -63 126 -63 16 0 21 6
21 28 0 40 -20 62 -65 72 -53 13 -58 12 -80 -4z m106 -35 c13 -11 21 -22 17
-26 -11 -11 -52 2 -79 25 l-24 19 31 1 c18 0 42 -9 55 -19z"/>
<path d="M1830 3770 c-40 -10 -60 -33 -60 -72 0 -22 5 -28 22 -28 29 0 101 35
124 61 18 20 18 21 -1 35 -21 15 -33 16 -85 4z m50 -34 c-8 -8 -32 -21 -52
-29 l-37 -16 11 24 c11 25 25 32 68 34 21 1 22 -1 10 -13z"/>
<path d="M1363 3736 c-79 -38 -103 -65 -103 -114 l0 -34 63 6 c152 16 155 17
161 39 8 29 8 101 0 121 -9 24 -43 19 -121 -18z m97 -45 c0 -28 -3 -52 -7 -54
-5 -3 -45 -8 -90 -11 -79 -7 -81 -7 -76 14 6 24 52 59 108 81 62 26 65 25 65
-30z"/>
<path d="M1514 3736 c-7 -41 0 -104 14 -118 5 -5 53 -13 107 -19 78 -8 100 -7
106 3 31 49 -79 148 -185 165 -33 5 -35 4 -42 -31z m136 -33 c31 -17 50 -35
50 -46 0 -10 4 -16 8 -13 5 3 9 -2 9 -10 0 -13 -13 -14 -81 -8 -45 3 -84 9
-88 13 -8 8 -11 27 -9 68 1 29 3 31 31 28 17 -2 53 -17 80 -32z"/>
<path d="M673 3698 c-6 -24 -22 -81 -36 -128 -28 -96 -47 -229 -47 -340 -1
-65 -13 -153 -36 -253 l-7 -29 32 16 c38 20 68 76 109 206 36 112 59 230 67
337 6 76 5 80 -33 156 l-38 79 -11 -44z m41 -76 c28 -54 17 -193 -30 -389 -18
-78 -48 -145 -59 -135 -5 4 -5 2 -2 -5 4 -6 3 -22 -2 -35 -8 -19 -16 -12 -13
13 8 65 13 160 12 219 0 41 4 98 10 125 6 28 14 62 17 78 3 15 8 27 12 27 3 0
6 15 5 33 -1 30 20 97 31 97 2 0 11 -13 19 -28z"/>
<path d="M2280 3662 c-31 -69 -35 -85 -32 -151 7 -199 103 -504 172 -544 36
-22 37 -16 15 70 -9 32 -20 132 -25 223 -11 185 -15 209 -62 367 l-33 112 -35
-77z m49 -53 c6 -20 13 -45 16 -55 2 -10 11 -50 20 -88 9 -37 14 -71 10 -74
-3 -3 -5 1 -5 8 0 7 -3 11 -6 8 -3 -4 0 -16 6 -28 6 -12 13 -63 16 -113 7
-158 13 -237 20 -250 5 -8 4 -9 -4 -2 -21 20 -72 171 -102 299 -31 136 -37
253 -14 305 20 45 26 44 43 -10z"/>
<path d="M889 3648 c-18 -24 -47 -59 -65 -78 -29 -31 -35 -47 -48 -130 -17
-109 -54 -242 -92 -333 -14 -34 -28 -69 -31 -77 -3 -8 24 32 59 90 35 58 85
140 111 182 63 101 97 202 104 306 3 45 3 82 0 82 -3 0 -20 -19 -38 -42z m17
-35 c-2 -10 -7 -40 -11 -66 -7 -57 -53 -179 -65 -172 -5 3 -6 -3 -3 -13 2 -10
-3 -24 -11 -31 -9 -8 -16 -20 -16 -28 0 -8 -4 -11 -10 -8 -5 3 -10 -2 -10 -11
0 -10 -2 -15 -5 -12 -3 2 0 31 6 64 9 51 18 80 38 118 2 5 0 6 -6 3 -14 -9 -6
61 9 78 7 7 29 32 48 54 40 46 43 48 36 24z"/>
<path d="M1082 3678 c-33 -33 -3 -87 68 -123 68 -34 80 -33 80 11 0 48 -14 71
-58 93 -56 28 -77 32 -90 19z m49 -29 c11 -5 16 -15 13 -21 -4 -7 -3 -8 4 -4
18 11 49 -11 54 -38 4 -20 1 -24 -15 -20 -37 7 -87 48 -87 72 0 25 3 26 31 11z"/>
<path d="M1841 3664 c-55 -28 -74 -57 -69 -103 2 -22 8 -26 31 -24 35 2 108
51 124 83 10 20 10 29 -1 44 -19 29 -26 29 -85 0z m60 -26 c-5 -13 -14 -22
-21 -20 -6 1 -9 -1 -6 -6 7 -12 -29 -41 -59 -46 -23 -4 -25 -2 -19 17 8 26 21
40 59 60 43 23 56 22 46 -5z"/>
<path d="M2073 3613 c7 -100 36 -189 90 -283 48 -81 170 -286 186 -310 5 -8
-8 28 -29 80 -44 110 -77 228 -94 344 -12 78 -15 84 -77 163 -35 45 -68 82
-73 82 -5 1 -6 -33 -3 -76z m43 -2 c-3 -5 1 -12 10 -15 8 -3 13 -10 10 -15 -3
-5 1 -12 10 -15 8 -3 12 -11 9 -16 -4 -6 -1 -9 6 -8 18 4 36 -53 44 -137 3
-38 10 -72 13 -75 6 -4 11 -60 6 -60 -8 0 -41 80 -36 86 4 4 2 4 -4 1 -8 -5
-44 55 -49 83 -1 3 -7 25 -14 49 -7 25 -11 55 -8 67 2 13 0 21 -4 18 -10 -6
-12 30 -2 39 9 10 15 9 9 -2z"/>
<path d="M1316 3570 c-52 -10 -69 -34 -63 -90 8 -68 33 -83 131 -78 98 6 109
17 104 101 -3 36 -10 62 -19 68 -16 10 -97 10 -153 -1z m139 -42 c10 -49 9
-99 -2 -96 -5 1 -25 -1 -45 -5 -45 -9 -114 7 -122 29 -11 28 -6 62 10 78 11
12 35 16 85 16 63 0 69 -2 74 -22z"/>
<path d="M1525 3556 c-19 -29 -17 -118 2 -137 14 -14 121 -23 165 -15 41 7 58
36 58 96 0 53 -26 69 -127 77 -79 6 -81 5 -98 -21z m182 -18 c17 -23 15 -84
-2 -98 -17 -14 -108 -16 -146 -4 -19 5 -30 75 -16 99 10 19 150 21 164 3z"/>
<path d="M1693 3525 c0 -8 4 -12 9 -9 5 3 6 10 3 15 -9 13 -12 11 -12 -6z"/>
<path d="M1083 3509 c9 -73 58 -119 127 -119 35 0 37 11 14 70 -13 31 -29 48
-68 70 -73 43 -80 41 -73 -21z m57 7 c0 4 13 -5 30 -21 16 -15 29 -31 28 -34
0 -3 1 -8 2 -11 9 -25 6 -38 -8 -33 -10 3 -22 10 -28 14 -6 5 -13 7 -16 4 -10
-11 -30 25 -32 60 -3 29 -1 33 10 24 8 -6 14 -8 14 -3z"/>
<path d="M1848 3531 c-53 -33 -75 -62 -84 -109 -7 -34 -3 -36 45 -32 37 3 89
42 101 74 14 41 13 96 -3 96 -7 0 -34 -13 -59 -29z m40 -23 c0 -27 -19 -81
-25 -74 -2 2 -16 -2 -31 -10 -25 -13 -41 -6 -42 17 0 12 82 89 96 89 1 0 3
-10 2 -22z"/>
<path d="M1073 3393 c-11 -40 -7 -126 6 -152 33 -60 172 -203 186 -189 2 2 -2
28 -10 58 -8 30 -15 94 -15 142 0 97 -4 103 -82 127 -20 7 -42 19 -48 27 -18
21 -29 17 -37 -13z m135 -78 c4 -11 8 -58 8 -105 -1 -47 4 -88 9 -92 6 -5 6
-8 -1 -8 -12 0 -41 29 -58 59 -6 10 -26 37 -43 61 -27 35 -33 52 -33 91 0 26
5 49 11 51 19 6 97 -35 107 -57z"/>
<path d="M1871 3394 c-19 -13 -41 -24 -50 -24 -9 0 -27 -7 -39 -16 -20 -14
-22 -23 -22 -105 0 -50 -5 -110 -11 -134 -19 -77 -6 -75 79 13 98 101 119 146
106 229 -5 31 -13 58 -19 59 -5 1 -25 -9 -44 -22z m40 -65 c1 -19 -3 -46 -9
-61 -15 -36 -78 -118 -86 -111 -3 4 -6 -1 -6 -9 0 -23 -26 -42 -36 -27 -4 7
-3 9 3 6 6 -4 9 33 9 96 l0 102 55 27 c30 14 57 23 62 19 4 -4 8 -23 8 -42z"/>
<path d="M1315 3373 c-11 -3 -26 -12 -32 -21 -16 -19 -17 -178 -2 -241 12 -54
175 -391 189 -391 19 0 22 57 18 342 -5 334 0 319 -97 317 -31 -1 -65 -3 -76
-6z m129 -35 c-3 -4 -1 -8 4 -8 5 0 10 -99 11 -220 l2 -220 -30 2 c-23 2 -33
9 -43 33 -7 16 -13 32 -13 35 -1 3 -12 23 -26 45 -13 22 -24 42 -24 45 -1 3
-7 23 -14 45 -13 37 -20 193 -11 225 3 8 10 18 15 23 14 10 136 6 129 -5z m30
-467 c3 -4 -12 -8 -34 -8 -22 0 -37 4 -34 8 3 5 18 9 34 9 16 0 31 -4 34 -9z
m-8 -81 l2 -45 -7 39 c-4 26 -13 42 -26 47 -18 8 -17 8 5 6 22 -2 25 -7 26
-47z"/>
<path d="M1540 3370 c-19 -12 -28 -125 -29 -386 -1 -199 4 -264 20 -264 13 0
165 310 184 374 20 68 24 220 7 252 -6 12 -26 24 -43 28 -46 9 -122 7 -139 -4z
m152 -42 c14 -16 17 -35 14 -101 -5 -113 -18 -156 -97 -314 -80 -158 -71 -173
-70 127 1 181 8 290 19 302 10 9 62 15 92 10 14 -2 33 -13 42 -24z"/>
<path d="M763 3168 c-57 -94 -103 -181 -103 -194 0 -31 18 -40 35 -18 16 22
177 375 173 379 -2 2 -49 -74 -105 -167z"/>
<path d="M2130 3339 c0 -7 120 -271 156 -342 30 -60 47 -68 52 -24 2 19 -25
73 -98 194 -101 166 -110 181 -110 172z"/>
<path d="M1075 3118 c-4 -29 -20 -112 -36 -185 -36 -164 -51 -272 -47 -343 l3
-55 23 70 c13 39 49 120 79 180 92 183 103 253 51 331 -46 68 -64 69 -73 2z
m59 -23 c21 -32 15 -144 -9 -182 -12 -18 -14 -28 -6 -32 7 -5 3 -15 -14 -31
-14 -13 -25 -34 -25 -46 0 -13 -4 -26 -10 -29 -14 -8 -13 31 2 58 6 12 18 27
27 34 9 7 11 13 5 13 -6 0 -21 -11 -33 -24 -18 -19 -24 -38 -26 -79 -2 -54 -9
-77 -24 -77 -9 0 15 124 30 151 5 11 7 25 3 31 -4 6 -3 8 3 5 11 -7 28 22 18
31 -3 3 -5 -1 -5 -8 0 -7 -2 -11 -5 -8 -3 3 1 32 9 64 16 63 28 121 29 142 1
19 13 14 31 -13z"/>
<path d="M1867 3135 c-67 -84 -59 -156 37 -350 35 -71 72 -156 82 -188 25 -80
36 -52 24 59 -13 113 -23 172 -55 309 -13 61 -27 131 -30 158 -4 26 -11 47
-18 47 -7 0 -25 -16 -40 -35z m36 -34 c5 -21 -37 -70 -50 -57 -8 8 26 76 37
76 4 0 10 -9 13 -19z m17 -56 c0 -3 -9 -14 -20 -25 -36 -36 -17 -100 31 -100
10 0 19 -4 19 -10 0 -17 -56 -11 -73 8 -33 36 -30 100 7 124 13 9 36 10 36 3z
m10 -43 c0 -4 -6 -14 -12 -21 -11 -10 -9 -15 6 -27 17 -12 17 -14 3 -14 -23 0
-38 30 -26 52 10 18 29 25 29 10z m22 -134 c10 -28 9 -128 -1 -128 -7 0 -11
25 -11 60 0 61 -19 87 -21 28 0 -27 -2 -29 -8 -13 -5 11 -7 27 -5 35 1 8 3 18
3 23 2 12 39 8 43 -5z"/>
<path d="M1973 3049 c26 -15 48 -65 42 -96 l-5 -28 11 27 c15 38 -22 108 -56
108 -5 -1 -2 -5 8 -11z"/>
<path d="M1207 3043 c-15 -25 26 -181 93 -347 65 -166 96 -266 111 -366 7 -47
16 -89 20 -94 11 -12 37 83 49 177 10 82 1 194 -22 252 -28 73 -99 219 -129
262 -54 81 -111 134 -122 116z m38 -72 c-5 -12 -4 -13 6 -4 9 9 16 7 31 -12
11 -14 16 -30 12 -36 -4 -8 -3 -9 4 -5 18 11 15 -19 -3 -34 -8 -7 -15 -17 -15
-23 0 -5 8 -3 18 6 10 10 27 17 38 17 15 -1 14 -4 -8 -16 -16 -8 -30 -26 -34
-42 -10 -46 -12 -48 -13 -11 -1 19 -5 39 -9 45 -20 22 -47 148 -30 138 5 -3 7
-13 3 -23z m123 -143 c6 -7 12 -35 15 -61 6 -53 17 -75 18 -36 l0 24 12 -23
c8 -19 8 -25 -4 -33 -26 -16 -34 -3 -37 57 -2 32 -7 63 -12 68 -18 18 -39 -15
-43 -67 l-3 -52 -2 61 c-1 33 1 64 5 67 11 11 40 8 51 -5z m-8 -72 c0 -56 15
-81 43 -70 21 8 47 -53 44 -105 -1 -22 1 -37 6 -34 10 6 0 -174 -12 -194 -10
-19 -24 75 -15 103 4 14 3 16 -4 5 -8 -10 -12 -6 -17 20 -4 18 -11 40 -16 49
-46 86 -77 280 -45 280 13 0 16 -12 16 -54z"/>
<path d="M1758 3029 c-56 -41 -178 -245 -162 -270 4 -7 3 -9 -3 -6 -13 8 -49
-73 -64 -144 -15 -70 -6 -249 15 -322 17 -55 36 -69 36 -25 0 58 47 238 97
367 95 249 137 401 116 414 -5 3 -20 -4 -35 -14z m1 -61 c-7 -12 -20 -29 -31
-36 -10 -7 -18 -22 -18 -32 0 -13 -5 -17 -15 -14 -13 5 -12 10 5 35 29 39 64
78 68 74 2 -2 -2 -14 -9 -27z m-4 -48 c3 -5 2 -10 -3 -10 -5 0 -14 -28 -19
-62 l-10 -63 -2 66 c0 36 2 69 6 72 9 10 21 9 28 -3z m-60 -50 c11 -17 12
-110 1 -110 -5 0 -7 -3 -3 -6 3 -4 -2 -23 -13 -44 -11 -21 -16 -40 -13 -44 4
-3 1 -6 -6 -6 -7 0 -10 -4 -7 -9 3 -5 -5 -35 -18 -67 -28 -69 -52 -143 -61
-197 -5 -27 -11 -35 -18 -28 -11 11 -14 208 -4 246 3 11 6 25 6 31 1 7 21 32
46 57 36 37 45 53 45 82 0 29 5 37 25 45 36 14 31 21 -5 9 -26 -10 -30 -16
-30 -48 0 -44 -24 -81 -52 -81 -19 0 -19 2 6 21 15 12 26 30 26 44 0 36 18 75
34 75 21 0 31 21 15 31 -11 7 -11 9 3 9 9 0 20 -5 23 -10z"/>
<path d="M1970 3010 c0 -5 5 -10 11 -10 5 0 7 5 4 10 -3 6 -8 10 -11 10 -2 0
-4 -4 -4 -10z"/>
<path d="M1992 2965 c0 -16 2 -22 5 -12 2 9 2 23 0 30 -3 6 -5 -1 -5 -18z"/>
<path d="M590 2951 c-77 -24 -124 -71 -150 -154 -7 -22 -27 -50 -51 -69 -43
-35 -42 -48 3 -48 22 0 40 10 64 36 19 19 34 39 34 44 0 4 20 18 45 30 24 12
56 35 69 51 26 31 43 90 31 108 -7 12 -10 12 -45 2z m10 -31 c13 -9 10 -14
-15 -34 -16 -14 -33 -28 -37 -33 -31 -37 -99 -105 -103 -101 -3 2 3 13 13 24
9 10 18 29 19 42 4 29 63 94 80 88 7 -3 13 1 13 9 0 17 9 19 30 5z m10 -42
c-1 -10 -70 -68 -70 -59 0 15 45 61 60 61 5 0 10 -1 10 -2z m-160 -142 c0 -2
-7 -7 -16 -10 -8 -3 -12 -2 -9 4 6 10 25 14 25 6z"/>
<path d="M2364 2946 c-8 -21 15 -87 40 -115 11 -12 40 -32 63 -43 24 -11 52
-35 64 -54 24 -39 47 -54 83 -54 38 0 40 16 5 41 -20 14 -43 48 -64 93 -34 74
-51 94 -100 118 -51 25 -85 30 -91 14z m93 -42 c24 -14 41 -29 38 -35 -4 -5
-2 -9 2 -9 13 0 42 -69 32 -76 -5 -3 -9 0 -9 5 0 6 -3 10 -7 9 -12 -3 -73 31
-73 41 0 4 -11 20 -25 35 -13 14 -22 33 -19 41 8 20 10 19 61 -11z m-40 -49
c9 -24 -1 -27 -15 -5 -8 13 -8 20 -2 20 6 0 13 -7 17 -15z"/>
<path d="M657 2913 c-3 -4 -8 -23 -12 -41 -3 -17 -19 -45 -35 -60 -21 -22 -26
-32 -18 -45 11 -20 39 -22 56 -5 7 7 13 41 13 78 l2 65 7 -50 c14 -88 -19
-142 -70 -115 -11 6 -20 18 -20 26 0 22 -47 10 -77 -18 -39 -37 -30 -53 29
-53 29 0 76 -4 105 -9 l51 -8 11 38 c14 50 13 120 -2 163 -12 34 -31 50 -40
34z m-20 -140 c-19 -20 -43 -8 -26 13 6 7 15 11 20 8 5 -3 9 1 10 8 0 10 2 10
6 0 3 -8 -2 -21 -10 -29z m-61 -38 c27 -29 60 -32 86 -8 23 21 35 11 13 -11
-31 -30 -103 -17 -125 24 -15 28 -2 25 26 -5z"/>
<path d="M2313 2893 c-19 -29 -25 -133 -10 -187 8 -28 9 -28 55 -20 26 4 74 9
107 9 46 2 59 5 57 16 -10 39 -118 102 -133 77 -4 -7 -3 -15 2 -19 6 -3 -4 -6
-21 -7 -38 -1 -50 22 -25 46 16 16 17 16 10 -5 -7 -26 6 -30 24 -9 9 11 7 21
-9 48 -11 18 -20 41 -20 50 0 29 -18 30 -37 1z m27 -23 c0 -5 -8 -10 -17 -10
-15 0 -16 2 -3 10 19 12 20 12 20 0z m-3 -48 c-20 -22 -22 -46 -4 -60 13 -10
77 -22 74 -13 -1 3 1 7 6 9 16 5 27 2 27 -9 0 -5 -4 -7 -10 -4 -6 4 -7 -1 -3
-11 4 -11 2 -15 -4 -11 -6 4 -13 0 -17 -8 -4 -10 -18 -14 -48 -13 l-43 1 38 4
c44 5 50 23 7 23 -43 0 -69 67 -38 98 19 19 33 14 15 -6z m128 -82 c-3 -6 1
-7 9 -4 10 4 16 1 16 -8 0 -14 -33 -19 -37 -5 -6 15 -2 27 8 27 5 0 7 -4 4
-10z"/>
<path d="M808 2883 c6 -2 18 -2 25 0 6 3 1 5 -13 5 -14 0 -19 -2 -12 -5z"/>
<path d="M938 2883 c6 -2 18 -2 25 0 6 3 1 5 -13 5 -14 0 -19 -2 -12 -5z"/>
<path d="M2024 2874 c-18 -14 -18 -14 6 -3 31 14 36 19 24 19 -6 0 -19 -7 -30
-16z"/>
<path d="M2080 2880 c8 -5 24 -10 34 -10 26 0 18 6 -19 14 -22 5 -26 4 -15 -4z"/>
<path d="M2162 2880 c14 -4 32 -11 40 -15 7 -3 4 1 -6 9 -11 9 -29 16 -40 15
-17 -1 -16 -2 6 -9z"/>
<path d="M759 2863 c-13 -16 -12 -17 4 -4 9 7 17 15 17 17 0 8 -8 3 -21 -13z"/>
<path d="M1163 2852 c-27 -33 -55 -89 -80 -163 -15 -45 -18 -87 -18 -254 0
-217 5 -248 62 -430 30 -97 34 -118 29 -180 -19 -219 -19 -209 3 -254 26 -50
55 -64 92 -45 29 15 59 77 59 124 0 17 -9 56 -20 87 -24 70 -25 128 -3 264 23
144 23 449 0 582 -28 159 -72 297 -95 297 -4 0 -17 -13 -29 -28z m21 -28 c10
-10 16 -33 16 -65 0 -60 19 -66 21 -6 2 41 2 41 10 -13 15 -105 18 -123 28
-154 5 -17 9 -38 9 -46 0 -8 3 -28 6 -45 7 -34 8 -318 1 -385 -3 -25 -10 -76
-15 -115 -17 -118 -18 -217 -2 -242 8 -13 11 -23 7 -23 -4 0 -3 -6 3 -12 11
-15 15 -37 13 -89 -2 -75 -82 -116 -97 -50 -4 14 -10 31 -13 36 -8 11 -6 97 3
135 18 78 5 191 -38 308 -8 23 -13 42 -9 42 3 0 0 7 -7 15 -7 8 -10 21 -7 29
3 7 2 17 -3 22 -26 26 -34 392 -11 475 l13 47 48 -2 c44 -1 47 1 34 15 -8 9
-14 36 -14 62 0 25 -4 49 -10 52 -10 6 -14 25 -6 25 3 0 12 -7 20 -16z m-18
-39 c1 -17 -3 -25 -15 -24 -10 0 -11 2 -3 6 6 2 10 9 6 14 -4 7 2 29 9 29 1 0
3 -11 3 -25z m2 -61 c4 -26 -22 -38 -49 -24 -26 15 -24 22 5 14 13 -3 27 -1
30 5 4 6 0 11 -8 11 -8 0 -18 5 -22 11 -4 7 2 9 17 7 15 -2 25 -11 27 -24z"/>
<path d="M810 2861 c13 -10 13 -11 0 -11 -13 0 -13 -1 0 -10 12 -8 12 -10 1
-10 -8 0 -12 -3 -9 -6 11 -10 48 16 47 34 -1 16 -2 16 -6 0 -5 -19 -25 -25
-20 -7 1 6 -5 14 -13 16 -13 4 -13 3 0 -6z"/>
<path d="M948 2863 c7 -3 16 -2 19 1 4 3 -2 6 -13 5 -11 0 -14 -3 -6 -6z"/>
<path d="M1791 2856 c-7 -8 -16 -29 -22 -48 -77 -247 -95 -528 -53 -807 19
-128 17 -194 -7 -271 -27 -87 -20 -141 26 -187 18 -18 38 -33 45 -33 6 0 24
13 40 28 42 42 54 114 35 205 -21 102 -19 140 15 247 45 141 59 209 70 340 19
210 -12 392 -84 500 -28 42 -46 49 -65 26z m42 -23 c-7 -2 -21 -2 -30 0 -10 3
-4 5 12 5 17 0 24 -2 18 -5z m-23 -43 c0 -5 -4 -10 -10 -10 -5 0 -10 5 -10 10
0 6 5 10 10 10 6 0 10 -4 10 -10z m50 1 c0 -5 3 -17 6 -25 4 -11 -7 -29 -32
-54 -34 -32 -35 -34 -9 -18 17 10 35 24 41 32 8 10 14 0 27 -44 19 -65 18 -52
21 -232 2 -144 -7 -237 -31 -330 -3 -14 -7 -30 -8 -36 -6 -24 -47 -150 -55
-165 -10 -18 -3 -141 10 -173 9 -24 7 -117 -3 -156 -7 -24 -32 -50 -50 -50 -4
0 -5 5 -1 12 4 7 3 8 -5 4 -6 -4 -17 -1 -24 6 -16 17 -37 78 -27 78 5 0 7 15
6 33 -1 17 2 38 7 45 5 6 7 12 4 12 -4 0 0 17 6 38 14 39 14 118 2 206 -15
108 -19 154 -19 228 0 42 -4 74 -8 72 -4 -3 -5 1 -2 9 3 8 6 43 8 78 1 35 6
73 10 84 7 17 6 17 -4 5 -9 -12 -10 -9 -5 15 4 17 9 48 11 70 10 101 23 157
35 149 16 -10 9 9 -8 22 -16 11 -13 12 17 8 40 -7 54 4 65 49 5 17 3 27 -4 27
-6 0 -11 -9 -11 -20 0 -21 -34 -45 -50 -35 -17 11 -11 23 9 18 13 -3 20 2 25
21 4 17 13 26 26 26 11 0 20 -4 20 -9z"/>
<path d="M2058 2863 c7 -3 16 -2 19 1 4 3 -2 6 -13 5 -11 0 -14 -3 -6 -6z"/>
<path d="M2148 2863 c7 -3 16 -2 19 1 4 3 -2 6 -13 5 -11 0 -14 -3 -6 -6z"/>
<path d="M872 2835 c-7 -14 -11 -38 -11 -53 1 -20 2 -22 6 -7 14 69 14 69 24
54 5 -7 9 -9 9 -4 0 6 -4 16 -8 23 -6 9 -12 5 -20 -13z"/>
<path d="M2058 2843 c6 -2 18 -2 25 0 6 3 1 5 -13 5 -14 0 -19 -2 -12 -5z"/>
<path d="M2148 2843 c6 -2 18 -2 25 0 6 3 1 5 -13 5 -14 0 -19 -2 -12 -5z"/>
<path d="M741 2814 c0 -11 3 -14 6 -6 3 7 2 16 -1 19 -3 4 -6 -2 -5 -13z"/>
<path d="M761 2825 c1 -19 18 -51 18 -35 0 8 -4 22 -9 30 -5 8 -9 11 -9 5z"/>
<path d="M932 2818 c-22 -22 -7 -69 22 -68 6 0 3 5 -6 11 -21 12 -23 40 -6 57
7 7 10 12 7 12 -3 0 -10 -5 -17 -12z"/>
<path d="M2145 2818 c-2 -7 -6 -35 -7 -63 -3 -42 -6 -50 -23 -50 -17 0 -21 9
-26 55 l-6 55 -1 -50 c-2 -53 10 -75 40 -75 19 0 26 19 30 93 3 47 1 58 -7 35z"/>
<path d="M2103 2775 c0 -27 2 -38 4 -22 2 15 2 37 0 50 -2 12 -4 0 -4 -28z"/>
<path d="M2191 2804 c0 -11 3 -14 6 -6 3 7 2 16 -1 19 -3 4 -6 -2 -5 -13z"/>
<path d="M2233 2765 c0 -33 2 -45 4 -27 2 18 2 45 0 60 -2 15 -4 0 -4 -33z"/>
<path d="M793 2775 c0 -22 2 -30 4 -17 2 12 2 30 0 40 -3 9 -5 -1 -4 -23z"/>
<path d="M881 2794 c0 -11 3 -14 6 -6 3 7 2 16 -1 19 -3 4 -6 -2 -5 -13z"/>
<path d="M2043 2760 c0 -30 2 -43 4 -27 2 15 2 39 0 55 -2 15 -4 2 -4 -28z"/>
<path d="M2172 2790 c0 -14 2 -19 5 -12 2 6 2 18 0 25 -3 6 -5 1 -5 -13z"/>
<path d="M2210 2763 c-3 -29 -1 -48 3 -44 5 5 7 28 5 52 l-3 44 -5 -52z"/>
<path d="M901 2777 c-1 -10 -5 -15 -11 -12 -6 4 -7 -1 -3 -11 6 -15 7 -15 15
0 5 9 7 22 4 29 -2 7 -5 4 -5 -6z"/>
<path d="M2122 2760 c0 -19 2 -27 5 -17 2 9 2 25 0 35 -3 9 -5 1 -5 -18z"/>
<path d="M2171 2744 c0 -11 3 -14 6 -6 3 7 2 16 -1 19 -3 4 -6 -2 -5 -13z"/>
<path d="M870 2743 c0 -16 49 -53 69 -52 12 0 11 2 -4 9 -13 6 -15 9 -5 9 13
1 13 3 1 10 -11 7 -10 10 5 13 17 3 17 4 -3 10 -17 5 -21 2 -18 -13 5 -26 -10
-24 -29 3 -9 12 -16 17 -16 11z"/>
<path d="M760 2719 c0 -5 5 -7 10 -4 6 3 10 8 10 11 0 2 -4 4 -10 4 -5 0 -10
-5 -10 -11z"/>
<path d="M758 2693 c6 -2 18 -2 25 0 6 3 1 5 -13 5 -14 0 -19 -2 -12 -5z"/>
<path d="M1485 2690 c-3 -6 1 -7 9 -4 18 7 21 14 7 14 -6 0 -13 -4 -16 -10z"/>
<path d="M447 2677 c-24 -18 -37 -83 -37 -179 0 -80 2 -88 19 -88 22 0 31 26
31 90 0 25 7 72 15 105 8 33 14 63 15 66 0 14 -29 17 -43 6z"/>
<path d="M2522 2681 c-11 -7 -11 -18 2 -67 8 -32 17 -92 21 -131 6 -64 10 -73
27 -73 19 0 20 6 16 108 -4 132 -27 188 -66 163z"/>
<path d="M500 2643 c-17 -59 -34 -225 -26 -256 4 -19 12 -27 24 -25 13 3 19
23 28 108 6 58 17 123 23 145 16 57 14 65 -14 65 -19 0 -26 -7 -35 -37z m27
-25 c-3 -7 -5 -2 -5 12 0 14 2 19 5 13 2 -7 2 -19 0 -25z m-20 -80 c-3 -8 -6
-5 -6 6 -1 11 2 17 5 13 3 -3 4 -12 1 -19z"/>
<path d="M565 2613 c-9 -38 -19 -103 -22 -147 -6 -72 -5 -78 13 -74 21 4 32
34 33 93 1 22 10 72 20 110 21 74 20 85 -8 85 -14 0 -22 -15 -36 -67z"/>
<path d="M2376 2672 c-3 -5 3 -35 13 -68 10 -32 22 -89 26 -127 7 -68 30 -112
45 -86 8 12 5 54 -11 154 -15 101 -28 135 -49 135 -10 0 -21 -4 -24 -8z"/>
<path d="M2445 2653 c16 -62 34 -181 35 -224 0 -48 19 -77 41 -63 16 10 5 192
-16 262 -14 45 -19 52 -41 52 -24 0 -25 -3 -19 -27z m39 -29 c3 -8 2 -12 -4
-9 -6 3 -10 10 -10 16 0 14 7 11 14 -7z m16 -68 c0 -26 -6 -18 -14 19 -5 22
-4 26 4 15 5 -8 10 -24 10 -34z m7 -118 c-3 -8 -6 -5 -6 6 -1 11 2 17 5 13 3
-3 4 -12 1 -19z"/>
<path d="M627 2603 c-25 -92 -32 -156 -17 -151 19 6 26 22 53 121 l24 87 -22
0 c-19 0 -25 -10 -38 -57z"/>
<path d="M2320 2653 c0 -14 48 -182 55 -193 22 -36 33 16 16 80 -6 19 -15 54
-21 78 -8 31 -16 42 -30 42 -11 0 -20 -3 -20 -7z"/>
<path d="M1019 2553 c-20 -74 -24 -111 -24 -233 0 -165 1 -168 112 -552 7 -22
19 -23 27 -2 16 40 4 134 -29 238 -61 191 -84 381 -66 540 6 50 9 91 7 93 -2
2 -14 -36 -27 -84z m18 -415 c-3 -8 -6 -5 -6 6 -1 11 2 17 5 13 3 -3 4 -12 1
-19z m24 -101 c-10 -9 -11 -8 -5 6 3 10 9 15 12 12 3 -3 0 -11 -7 -18z m16
-39 c-3 -8 -6 -5 -6 6 -1 11 2 17 5 13 3 -3 4 -12 1 -19z m22 -55 c18 -73 19
-83 10 -78 -4 3 -11 22 -14 43 -3 20 -10 45 -16 55 -6 11 -6 17 1 17 5 0 13
-17 19 -37z"/>
<path d="M1958 2605 c4 -22 6 -110 6 -195 -2 -169 -14 -242 -66 -400 -24 -72
-32 -114 -32 -172 -1 -72 6 -100 20 -85 8 8 55 166 88 297 52 201 52 365 1
522 -14 42 -21 56 -17 33z m-17 -583 c-10 -18 -11 -24 -11 -48 0 -8 -4 -12
-10 -9 -6 4 -5 18 4 40 8 18 11 37 8 41 -4 4 -1 4 6 0 8 -5 9 -13 3 -24z m-21
-93 c0 -10 -4 -19 -10 -19 -5 0 -10 -8 -11 -17 0 -12 -2 -13 -6 -5 -3 7 1 19
7 27 7 8 10 22 6 30 -3 9 -2 13 4 10 6 -3 10 -15 10 -26z"/>
<path d="M1313 2539 c4 -24 9 -120 13 -214 5 -144 3 -191 -15 -310 -24 -160
-25 -199 -10 -246 24 -72 61 -73 94 -2 37 76 31 385 -11 591 -30 153 -86 294
-71 181z m72 -504 c5 -191 3 -224 -11 -253 -21 -42 -46 -38 -56 8 -6 33 -5 59
7 140 19 120 26 187 30 280 5 126 5 124 16 80 6 -19 12 -134 14 -255z"/>
<path d="M1669 2554 c-17 -45 -47 -167 -66 -268 -21 -115 -25 -442 -5 -497 15
-43 56 -84 72 -74 40 25 49 123 25 270 -24 140 -29 317 -15 459 12 130 9 161
-11 110z m-22 -216 c-3 -8 -6 -5 -6 6 -1 11 2 17 5 13 3 -3 4 -12 1 -19z m-9
-85 c9 -70 18 -196 17 -235 0 -26 2 -43 5 -38 11 17 30 -112 24 -165 -2 -27
-11 -56 -18 -64 -12 -11 -17 -9 -33 15 -15 24 -18 53 -21 196 -2 107 0 168 6
168 6 0 7 11 3 28 -4 15 -4 39 0 54 4 14 5 29 2 32 -4 4 4 26 10 26 2 0 4 -8
5 -17z"/>
<path d="M1362 1697 c-12 -13 -26 -46 -32 -75 -18 -99 -61 -148 -121 -140
l-32 5 6 -161 c3 -89 13 -216 22 -284 25 -200 91 -539 103 -527 3 3 -1 123 -8
268 -19 371 -14 438 44 609 60 178 82 328 48 328 -5 0 -18 -10 -30 -23z m13
-27 c-3 -5 -1 -10 6 -10 7 0 10 -3 6 -6 -9 -9 -28 6 -22 17 4 5 8 9 11 9 3 0
2 -4 -1 -10z m5 -33 c0 -30 -30 -147 -60 -238 -52 -153 -58 -203 -55 -398 1
-90 -1 -157 -5 -150 -8 16 -39 257 -47 364 -3 39 -7 109 -10 158 l-5 87 29 0
c16 0 38 7 49 15 12 8 25 11 29 7 5 -4 5 -2 1 5 -3 6 -2 14 4 18 5 3 10 0 11
-7 0 -12 16 42 33 115 3 15 11 27 16 27 6 0 10 -1 10 -3z"/>
<path d="M1596 1703 c-13 -33 17 -180 62 -312 l47 -136 0 -215 c0 -118 -4
-287 -9 -375 -4 -88 -5 -157 -2 -154 19 18 81 351 106 574 11 93 20 222 20
286 l0 116 -29 -5 c-57 -8 -104 44 -117 129 -8 50 -20 79 -43 96 -22 17 -28
16 -35 -4z m59 -107 c6 -13 5 -17 -2 -13 -16 10 23 -67 41 -82 9 -7 14 -17 11
-21 -3 -5 0 -12 6 -16 8 -4 9 -3 5 4 -4 7 -3 12 3 12 5 0 13 -4 16 -10 3 -5
17 -10 29 -10 15 0 26 -7 29 -19 9 -35 -8 -365 -20 -385 -3 -5 -7 -29 -9 -55
-6 -69 -10 -90 -17 -96 -4 -3 -5 -2 -2 2 3 3 0 12 -6 19 -7 8 -8 26 -3 46 4
18 6 38 5 43 -2 6 -5 53 -7 106 -3 98 -28 234 -46 256 -6 7 -8 20 -4 28 3 9 2
13 -4 10 -6 -3 -10 -4 -10 0 0 3 -9 39 -20 80 -11 40 -22 95 -25 120 -7 56 7
86 16 35 3 -19 10 -44 14 -54z m86 -737 c-9 -22 -10 -22 -10 -3 -1 11 2 24 6
27 12 12 14 0 4 -24z"/>
<path d="M1096 1588 c-18 -152 -4 -430 30 -598 30 -146 138 -479 152 -465 2 2
-10 61 -27 132 -59 246 -86 435 -96 693 -6 142 -28 290 -44 290 -5 0 -11 -24
-15 -52z m28 -143 c-4 -8 -8 -15 -10 -15 -2 0 -4 7 -4 15 0 8 4 15 10 15 5 0
7 -7 4 -15z m9 -155 c6 -56 5 -62 -7 -47 -8 11 -13 44 -13 90 0 81 10 60 20
-43z m5 -138 c0 -58 -6 -49 -13 19 -4 36 -3 49 4 40 5 -8 9 -34 9 -59z m5 -67
c-3 -9 -8 -14 -10 -11 -3 3 -2 9 2 15 9 16 15 13 8 -4z m4 -47 c-3 -8 -6 -5
-6 6 -1 11 2 17 5 13 3 -3 4 -12 1 -19z"/>
<path d="M1888 1635 c-20 -32 -37 -151 -42 -295 -11 -258 -39 -455 -106 -729
-11 -46 -19 -85 -17 -87 9 -10 95 231 128 361 42 163 51 238 56 460 4 201 -3
315 -19 290z m-8 -182 c-11 -17 -11 -17 -6 0 3 10 6 24 7 30 0 9 2 9 5 0 3 -7
0 -20 -6 -30z m5 -200 c-4 -46 -11 -83 -16 -83 -5 0 -6 19 -4 43 3 23 7 80 9
127 3 47 6 87 7 90 7 14 10 -105 4 -177z m-20 -173 c-1 -22 -4 -43 -7 -45 -3
-3 -4 12 -3 32 3 45 4 53 9 53 2 0 2 -18 1 -40z"/>
<path d="M1356 1348 c-35 -82 -49 -212 -43 -417 4 -106 8 -195 10 -198 2 -2 7
21 10 51 3 29 20 98 38 152 31 93 33 107 34 239 0 108 -4 148 -17 175 l-16 35
-16 -37z m27 -172 c0 -102 -16 -194 -39 -222 -9 -11 -12 -13 -9 -6 4 8 6 65 6
128 -1 64 4 133 10 156 7 24 12 50 11 58 -2 10 1 8 9 -4 7 -11 12 -58 12 -110z"/>
<path d="M1610 1343 c-18 -60 -24 -204 -11 -276 6 -36 23 -101 37 -144 14 -43
28 -100 31 -126 3 -26 10 -50 14 -53 15 -9 11 406 -5 489 -14 71 -40 147 -50
147 -3 0 -10 -17 -16 -37z m28 -45 c-1 -7 3 -33 10 -58 13 -47 23 -300 12
-300 -7 0 -30 91 -38 145 -5 43 -3 205 4 216 8 13 15 11 12 -3z"/>
<path d="M1040 1258 c-25 -148 1 -305 95 -578 31 -89 35 -194 10 -255 l-17
-38 61 59 c34 32 61 64 61 71 0 6 -22 71 -49 145 -79 213 -116 379 -128 566
-3 56 -9 102 -14 102 -4 0 -13 -33 -19 -72z m27 -230 c-3 -8 -6 -5 -6 6 -1 11
2 17 5 13 3 -3 4 -12 1 -19z m133 -428 c0 -5 -2 -10 -4 -10 -3 0 -8 5 -11 10
-3 6 -1 10 4 10 6 0 11 -4 11 -10z m7 -40 c-3 -11 -1 -18 4 -14 10 6 12 -17 3
-40 -12 -31 -24 -16 -24 29 0 26 5 45 11 45 6 0 9 -9 6 -20z"/>
<path d="M1927 1223 c-10 -184 -52 -364 -136 -587 -23 -60 -41 -113 -41 -118
0 -5 25 -34 56 -64 31 -31 53 -58 50 -61 -2 -3 -16 6 -30 20 -112 112 -161
102 -168 -34 -3 -68 -2 -75 14 -71 10 2 29 -3 42 -11 21 -14 32 -15 80 -5 41
9 67 9 96 1 22 -5 40 -7 40 -3 0 5 -16 27 -35 50 -19 23 -33 45 -30 50 3 4 -2
24 -10 44 -29 70 -20 151 40 334 61 189 75 260 75 379 0 84 -16 183 -29 183
-5 0 -11 -48 -14 -107z m-10 -295 c-3 -8 -6 -5 -6 6 -1 11 2 17 5 13 3 -3 4
-12 1 -19z m-103 -388 c-2 -51 -14 -84 -14 -39 0 20 -2 21 -11 9 -8 -11 -9 -9
-3 10 4 14 12 28 18 32 8 5 8 8 0 8 -6 0 -11 7 -11 15 0 8 5 15 12 15 7 0 11
-18 9 -50z m-54 -101 c42 -25 93 -77 103 -102 6 -17 2 -19 -42 -15 -27 1 -47
0 -44 -4 7 -12 -33 -9 -61 3 -21 10 -25 19 -28 70 -4 75 11 85 72 48z"/>
<path d="M1164 396 c-52 -51 -94 -98 -94 -103 0 -7 15 -7 45 0 32 7 59 7 96
-1 42 -10 54 -9 74 4 14 9 34 14 46 11 15 -4 19 -2 15 10 -3 8 -6 43 -6 78 0
71 -14 95 -57 95 -19 0 -50 -24 -119 -94z m146 -9 c-3 -38 -10 -62 -17 -62 -6
0 -15 -3 -19 -7 -10 -10 -57 -10 -51 0 3 4 -11 8 -30 9 -42 2 -65 19 -40 29 9
3 17 12 17 19 0 7 12 21 28 31 15 10 33 24 40 31 8 7 18 10 24 7 6 -4 8 -2 4
4 -8 14 15 21 34 10 12 -8 14 -23 10 -71z"/>
<path d="M1286 274 c-32 -32 -10 -94 34 -94 41 0 68 68 38 98 -17 17 -54 15
-72 -4z m40 -12 c13 -9 27 -45 15 -37 -5 3 -11 0 -13 -7 -3 -7 -12 -9 -22 -5
-13 5 -15 11 -7 26 6 10 7 21 4 25 -9 8 10 7 23 -2z"/>
<path d="M1642 278 c-28 -28 -4 -98 34 -98 34 0 54 20 54 55 0 24 -6 38 -19
45 -26 13 -54 13 -69 -2z m48 -16 c0 -4 -6 -14 -12 -22 -7 -8 -3 -7 8 3 21 17
21 17 17 -8 -5 -25 -26 -34 -38 -15 -8 13 4 50 16 50 5 0 9 -4 9 -8z"/>
<path d="M1076 259 c-32 -25 -33 -72 -2 -77 15 -3 18 0 13 20 -4 15 0 33 9 47
22 31 12 36 -20 10z"/>
<path d="M1121 254 c-25 -32 -26 -47 -5 -68 28 -29 46 -20 39 18 -4 19 -2 43
4 55 17 32 -12 28 -38 -5z"/>
<path d="M1187 267 c-38 -31 -24 -87 23 -87 36 0 62 40 44 67 -15 23 -49 34
-67 20z m43 -43 c0 -14 -21 -19 -33 -7 -9 9 13 34 24 27 5 -3 9 -12 9 -20z"/>
<path d="M1773 269 c-18 -6 -23 -16 -23 -43 0 -35 12 -46 50 -46 24 0 43 34
35 60 -9 27 -35 39 -62 29z m36 -33 c8 -10 8 -16 -3 -25 -10 -9 -16 -8 -26 3
-12 15 -6 36 9 36 5 0 14 -6 20 -14z"/>
<path d="M1786 218 c3 -5 10 -6 15 -3 13 9 11 12 -6 12 -8 0 -12 -4 -9 -9z"/>
<path d="M1840 265 c6 -8 10 -31 8 -51 -3 -42 11 -53 36 -29 22 22 20 47 -4
73 -24 25 -61 32 -40 7z"/>
<path d="M1890 275 c0 -4 7 -14 16 -22 10 -11 14 -26 10 -45 -4 -23 -2 -28 13
-28 25 0 33 33 14 59 -14 21 -53 47 -53 36z"/>
<path d="M1014 248 c-16 -12 -32 -27 -36 -32 -10 -14 11 -36 33 -36 14 0 19 7
19 28 0 15 5 33 12 40 22 22 1 22 -28 0z"/>
<path d="M1950 261 c0 -5 5 -13 10 -16 6 -3 10 -19 10 -36 0 -24 4 -29 24 -29
47 0 38 48 -14 75 -17 9 -30 11 -30 6z"/>
</g>
</svg>
